<svg width="101" height="102" viewBox="0 0 101 102" fill="none" xmlns="http://www.w3.org/2000/svg">
<g clip-path="url(#clip0_422_7972)">
<path d="M50.5 102C78.3904 102 101 79.1665 101 51C101 22.8335 78.3904 0 50.5 0C22.6096 0 0 22.8335 0 51C0 79.1665 22.6096 102 50.5 102Z" fill="#05376D"/>
<path fill-rule="evenodd" clip-rule="evenodd" d="M24.06 25.3706C24.3195 25.3755 24.6067 25.572 24.9491 26.0477C28.1584 29.9804 30.8739 34.9737 32.6534 39.7413L33.2085 38.7815C34.0111 37.4066 34.7008 36.4857 35.6632 35.3341L35.8156 35.1827C37.3934 33.6429 36.929 35.0638 39.1609 36.7223C40.3552 37.4637 41.4823 37.0014 42.7234 36.5852L43.4535 36.3586C45.3523 35.7955 45.7406 35.9861 45.5969 38.2323L45.4876 39.8147C45.3768 41.6415 45.2748 44.5829 45.6708 46.9297C46.1803 49.2922 48.1688 48.2863 49.0267 46.5875C49.374 45.8873 49.41 45.5003 49.3896 45.0743C49.3223 44.7528 49.2922 44.5501 49.2226 44.231C48.6014 41.1452 50.0769 37.9636 52.874 36.641C55.6664 35.3159 57.0914 35.9372 58.0563 36.5439C59.0187 37.1494 59.7997 38.2015 60.0376 38.779L60.0875 38.9069L60.1574 39.1065C60.2739 39.4753 60.3098 39.8508 59.9981 40.0954L58.9009 40.8528L57.3714 41.9485C56.7262 42.3429 56.767 41.8782 56.6156 41.3685C56.3525 40.547 56.0221 39.8651 55.4718 39.3797C54.3039 38.4344 53.1732 39.279 52.9281 40.547C52.3862 43.7735 53.9049 48.2511 57.7306 48.5654C58.8312 48.5023 59.3972 48.1686 59.9883 47.4721L60.11 47.3186C60.8946 46.3177 61.155 45.7476 61.155 44.3851C61.2139 43.3003 61.1875 42.2567 61.5203 41.2144C62.4395 38.5594 64.5169 36.4857 66.8047 35.9857C68.7319 35.5683 70.8082 36.2951 72.4603 38.7815L72.5669 38.9701C73.1048 39.9355 72.9538 39.9321 72.2428 40.7691L66.8047 46.3327L66.1847 46.9576L66.3815 47.2813C66.9298 48.1363 68.4815 50.0222 71.2924 47.3168C73.5669 44.9542 74.9511 40.6235 75.6239 38.5691L75.6828 38.4176C76.0198 37.4764 76.5873 34.8634 78.0818 35.9476L78.1327 35.9857C79.4412 36.9747 79.8798 37.6821 81.6605 37.6821C84.0431 37.4188 83.4051 38.5303 82.8019 40.3395L81.9959 42.4355C81.6052 43.4705 81.2601 44.4721 80.9765 45.6592L80.9167 45.9165C80.2907 48.5739 81.6725 48.9937 82.88 47.0255L85.1257 42.9108L85.2412 42.6786C87.0208 39.1373 89.1766 36.4881 93.1808 35.8729L93.7689 35.8314C94.5088 35.7966 94.625 35.944 94.2526 37.0705L93.6518 39.4209L93.6052 39.63C93.3913 40.5565 93.3627 40.0478 91.9168 40.6853C90.8955 41.2278 90.1481 41.9146 90.07 43.5187L90.0851 43.6385C90.1703 44.2591 90.4216 45.0121 92.6022 44.6751L92.8347 44.6363C96.2087 43.9835 95.4541 47.2634 95.191 49.2376C94.7764 51.3502 94.1877 52.9896 93.3057 55.1325L98.5505 55.4929L98.3053 56.9587L92.7014 56.4988L92.4635 57.0362C91.9581 58.1728 91.5089 59.1473 90.9351 60.3041L90.7715 60.5745C90.5831 60.8771 90.4456 61.0143 90.0292 60.9691C88.4443 61.0164 87.1671 61.2361 85.5703 61.5285C84.9188 61.5878 85.1046 61.1716 85.3109 60.8312L85.3876 60.7082C86.4185 59.1041 87.1323 57.8093 87.9313 56.1833L86.2973 56.0849C79.7695 55.6961 73.3362 55.3723 66.8047 55.4104C57.1635 55.4771 47.5428 55.9528 37.9173 56.8131C38.8016 60.7628 39.6535 64.7247 40.1762 68.7436L40.2499 69.5101C40.4017 70.9064 40.5115 70.9979 40.1871 71.2238L39.8169 71.4677C37.808 72.7746 36.3205 73.8048 34.5746 75.4987L34.3754 75.6849C33.6348 76.3662 33.3873 76.4257 33.1868 75.2075L32.5212 70.8865L31.5035 64.4771L30.4846 58.9548L30.1962 57.6334C27.5817 57.9671 25.0032 58.308 22.4739 58.7182C19.7753 59.155 17.1235 59.6574 14.6051 60.2423C14.0295 62.4628 13.7436 64.5038 13.5658 66.6698C13.4485 68.1964 13.4175 69.5259 13.5546 70.9524L13.579 71.1911C13.6354 71.7104 13.609 72.0235 13.5369 72.2455C13.4564 72.4724 13.305 72.6083 12.9878 72.7916C12.2308 73.3024 11.5952 73.9031 10.95 74.5438L9.25704 76.5569C8.78604 77.1976 8.69232 76.7365 8.69232 76.4622C9.1465 71.259 10.3805 65.9551 11.582 60.8999C9.63793 61.5346 7.89449 62.1825 6.21354 62.9312C4.20217 63.7952 4.27186 62.6533 3.80566 61.0807C5.95281 60.2471 8.88336 59.4001 12.1612 58.6745C14.2795 51.3769 16.6645 44.163 19.3355 37.3084L19.4069 37.0888C19.9051 35.5771 20.3656 34.583 19.9952 32.9024C19.8149 32.5529 19.9808 32.2593 20.1346 31.9413C20.8879 30.41 21.6749 28.909 22.4739 27.4092L22.7939 26.8474L22.9823 26.525C23.3571 25.8975 23.7203 25.3949 24.06 25.3706ZM22.647 36.7461C22.4219 36.7461 22.1626 37.28 21.9934 37.687L21.648 38.5614C19.6225 43.7199 17.0576 51.5558 15.1169 58.1219C17.1397 57.6951 19.2278 57.3695 21.4513 57.0355L23.4942 56.7325L25.1886 56.491C26.625 56.29 28.1237 56.0894 29.6964 55.888L29.5347 55.221C28.1904 49.74 26.2663 43.4515 23.8126 38.4431L23.5208 37.8543C23.2427 37.2998 22.9361 36.7461 22.647 36.7461ZM35.5118 39.5006C34.6299 40.2784 34.1048 41.1666 33.5425 42.1555L33.7048 42.6232C35.1709 46.8665 36.0446 49.9467 37.4787 55.1114C47.2556 54.3493 57.0157 54.0278 66.8047 54.0982C74.0451 54.1491 81.3012 54.4136 88.5705 54.8881C88.8276 54.3214 89.0799 53.7657 89.3251 53.1929L89.4305 52.967C91.1044 49.3307 90.3865 48.3602 88.9382 48.0795C87.1359 48.0468 87.0698 46.1283 87.2104 45.0593L87.255 44.8106C87.4685 43.6607 87.6949 43.0194 88.0566 42.3649L88.1908 42.1313C88.8276 41.0586 88.3218 40.9203 87.566 41.7612L87.4016 41.9689L87.2181 42.2185C86.9633 42.5831 86.6612 43.0984 86.2263 44.0436L85.2501 46.3696C85.0781 46.7723 84.8749 47.2366 84.5898 47.8684L84.4954 48.06C84.0611 48.9325 83.6967 49.5119 82.8007 50.402C80.9299 52.1761 77.7747 52.4843 77.3373 48.9253C77.151 47.0396 77.7079 45.2048 78.3237 43.4465L78.5749 42.738C79.1261 41.198 79.6122 40.9319 78.5274 40.7579L78.0642 40.697C77.3751 40.6255 76.9907 39.5756 76.3821 41.0913L76.316 41.2637C75.4509 43.5316 74.4969 45.7679 73.3302 47.8963C72.0914 49.8851 70.5342 51.2332 68.1492 51.539C67.671 51.5669 67.218 51.5669 66.8047 51.5257C64.5025 51.2745 62.9982 49.8584 62.1102 47.6051L62.0719 47.4731C61.9109 46.9368 61.8883 47.1216 61.7056 47.5122L61.6669 47.5929C61.3148 48.3016 60.982 48.7967 60.4149 49.3912C57.5481 52.7225 52.0188 52.198 50.4407 48.0533L50.3676 47.8509C50.3211 47.7296 50.2404 47.6122 50.0841 48.0213C48.8164 50.9966 47.0045 51.4978 45.5074 51.4978C40.9428 51.2272 40.7013 46.132 40.8382 42.5997L40.9091 41.3486L40.9082 41.2511C40.8932 40.5439 40.7008 40.7521 40.1101 41.0428C38.2778 41.6653 37.6866 41.3061 36.6088 39.7893L36.5213 39.6592C36.215 39.2155 36.0537 39.1424 35.5118 39.5006ZM64.6647 40.0502C63.9931 41.7612 64.398 43.8774 65.2282 45.4209L65.3139 45.3265L65.6866 44.9359C66.6093 43.9842 68.4751 42.1228 69.114 41.3887C69.114 40.2735 68.0879 38.8538 66.7446 38.7434C65.8218 38.6693 65.0588 39.0892 64.6647 40.0502ZM55.9107 28.1531L55.9498 28.4024C56.0383 28.9571 56.1619 29.4661 56.7069 29.7293C57.0326 29.8393 57.4762 29.7783 57.8504 29.6056L57.9157 29.5739C58.6426 29.2111 59.0692 29.7293 58.6835 30.3299C57.9001 31.5397 56.8968 32.6561 56.0917 33.1026C55.1325 33.7488 54.5354 33.361 54.2288 33.0866L53.9918 32.8636L53.8162 32.687C53.3507 32.1974 52.4696 31.0998 52.9004 30.1803L52.9281 30.1248C53.2346 29.5413 53.5915 29.0383 54.1134 28.3968L54.3608 28.0955C54.7142 27.6715 55.667 26.7808 55.9107 28.1531Z" fill="white"/>
</g>
<defs>
<clipPath id="clip0_422_7972">
<rect width="101" height="102" fill="white"/>
</clipPath>
</defs>
</svg>
