<svg width="130" height="56" viewBox="0 0 130 56" fill="none" xmlns="http://www.w3.org/2000/svg">
<g clip-path="url(#clip0_422_7963)">
<path d="M129.318 0H0V55.5052H116.091L129.318 26.1866V0ZM123.856 6.08818V24.7416L112.724 49.417H5.46174C5.46174 34.9738 5.46174 20.5306 5.46174 6.08818C45.2081 6.08818 84.1102 6.08818 123.856 6.08818Z" fill="#05376D"/>
<path d="M19.6241 38.62L35.7179 15.2752V10.6949H10.9702V16.8853H27.3196L10.9702 40.23V44.8097H35.937V38.62H19.6241Z" fill="#222222"/>
<path d="M60.7087 35.6986C58.9731 37.7085 56.7332 38.7157 53.9969 38.7157C51.2539 38.7157 49.0266 37.7085 47.3093 35.6986C45.7921 33.9263 44.948 31.6669 44.7665 28.9211C44.7362 28.5417 44.7234 28.1493 44.7234 27.7502C44.7234 25.1194 45.2817 22.8938 46.3869 21.0735C46.66 20.6276 46.9695 20.2084 47.3093 19.8086C49.0266 17.7933 51.2539 16.7847 53.9969 16.7847C56.7332 16.7847 58.9731 17.7933 60.7087 19.8086C61.0485 20.2084 61.358 20.6276 61.6311 21.0735C62.7478 22.8938 63.3055 25.1194 63.3055 27.7502C63.3055 28.1425 63.294 28.5287 63.2636 28.9009C63.0876 31.6541 62.2381 33.9263 60.7087 35.6986ZM68.7496 21.0335C68.0147 18.7675 66.8562 16.7719 65.2777 15.0536C64.6412 14.3629 63.9737 13.7474 63.2636 13.213C60.6601 11.2107 57.5707 10.2102 53.9969 10.2102C50.4346 10.2102 47.3512 11.2039 44.7665 13.1934C44.0504 13.7346 43.3768 14.357 42.7396 15.0536C41.1678 16.7719 40.0148 18.7675 39.2805 21.0335C38.625 23.042 38.2974 25.2676 38.2974 27.7036C38.2974 32.9048 39.7781 37.1328 42.7396 40.4007C45.695 43.668 49.4509 45.2983 53.9969 45.2983C58.5423 45.2983 62.3048 43.668 65.2777 40.4007C68.252 37.1328 69.7321 32.9048 69.7321 27.7036C69.7321 25.2676 69.4044 23.042 68.7496 21.0335Z" fill="#222222"/>
<path d="M80.2736 38.62V10.6949H74.1079V44.8097H95.0932V38.62H80.2736Z" fill="#222222"/>
<path d="M92.5188 10.6949V16.8853H101.482V44.8097H107.648V16.8853H116.611V10.6949H92.5188Z" fill="#222222"/>
</g>
<defs>
<clipPath id="clip0_422_7963">
<rect width="130" height="56" fill="white"/>
</clipPath>
</defs>
</svg>
