<svg width="40" height="40" viewBox="0 0 40 40" fill="none" xmlns="http://www.w3.org/2000/svg">
<path d="M36.25 35H32.5V5H33.75C34.0815 5 34.3995 4.8683 34.6339 4.63388C34.8683 4.39946 35 4.08152 35 3.75C35 3.41848 34.8683 3.10054 34.6339 2.86612C34.3995 2.6317 34.0815 2.5 33.75 2.5H6.25C5.91848 2.5 5.60054 2.6317 5.36612 2.86612C5.1317 3.10054 5 3.41848 5 3.75C5 4.08152 5.1317 4.39946 5.36612 4.63388C5.60054 4.8683 5.91848 5 6.25 5H7.5V35H3.75C3.41848 35 3.10054 35.1317 2.86612 35.3661C2.6317 35.6005 2.5 35.9185 2.5 36.25C2.5 36.5815 2.6317 36.8995 2.86612 37.1339C3.10054 37.3683 3.41848 37.5 3.75 37.5H36.25C36.5815 37.5 36.8995 37.3683 37.1339 37.1339C37.3683 36.8995 37.5 36.5815 37.5 36.25C37.5 35.9185 37.3683 35.6005 37.1339 35.3661C36.8995 35.1317 36.5815 35 36.25 35ZM10 5H30V35H25V28.75C25 28.4185 24.8683 28.1005 24.6339 27.8661C24.3995 27.6317 24.0815 27.5 23.75 27.5H16.25C15.9185 27.5 15.6005 27.6317 15.3661 27.8661C15.1317 28.1005 15 28.4185 15 28.75V35H10V5ZM22.5 35H17.5V30H22.5V35ZM13.75 10C13.75 9.66848 13.8817 9.35054 14.1161 9.11612C14.3505 8.8817 14.6685 8.75 15 8.75H17.5C17.8315 8.75 18.1495 8.8817 18.3839 9.11612C18.6183 9.35054 18.75 9.66848 18.75 10C18.75 10.3315 18.6183 10.6495 18.3839 10.8839C18.1495 11.1183 17.8315 11.25 17.5 11.25H15C14.6685 11.25 14.3505 11.1183 14.1161 10.8839C13.8817 10.6495 13.75 10.3315 13.75 10ZM21.25 10C21.25 9.66848 21.3817 9.35054 21.6161 9.11612C21.8505 8.8817 22.1685 8.75 22.5 8.75H25C25.3315 8.75 25.6495 8.8817 25.8839 9.11612C26.1183 9.35054 26.25 9.66848 26.25 10C26.25 10.3315 26.1183 10.6495 25.8839 10.8839C25.6495 11.1183 25.3315 11.25 25 11.25H22.5C22.1685 11.25 21.8505 11.1183 21.6161 10.8839C21.3817 10.6495 21.25 10.3315 21.25 10ZM13.75 16.25C13.75 15.9185 13.8817 15.6005 14.1161 15.3661C14.3505 15.1317 14.6685 15 15 15H17.5C17.8315 15 18.1495 15.1317 18.3839 15.3661C18.6183 15.6005 18.75 15.9185 18.75 16.25C18.75 16.5815 18.6183 16.8995 18.3839 17.1339C18.1495 17.3683 17.8315 17.5 17.5 17.5H15C14.6685 17.5 14.3505 17.3683 14.1161 17.1339C13.8817 16.8995 13.75 16.5815 13.75 16.25ZM21.25 16.25C21.25 15.9185 21.3817 15.6005 21.6161 15.3661C21.8505 15.1317 22.1685 15 22.5 15H25C25.3315 15 25.6495 15.1317 25.8839 15.3661C26.1183 15.6005 26.25 15.9185 26.25 16.25C26.25 16.5815 26.1183 16.8995 25.8839 17.1339C25.6495 17.3683 25.3315 17.5 25 17.5H22.5C22.1685 17.5 21.8505 17.3683 21.6161 17.1339C21.3817 16.8995 21.25 16.5815 21.25 16.25ZM13.75 22.5C13.75 22.1685 13.8817 21.8505 14.1161 21.6161C14.3505 21.3817 14.6685 21.25 15 21.25H17.5C17.8315 21.25 18.1495 21.3817 18.3839 21.6161C18.6183 21.8505 18.75 22.1685 18.75 22.5C18.75 22.8315 18.6183 23.1495 18.3839 23.3839C18.1495 23.6183 17.8315 23.75 17.5 23.75H15C14.6685 23.75 14.3505 23.6183 14.1161 23.3839C13.8817 23.1495 13.75 22.8315 13.75 22.5ZM21.25 22.5C21.25 22.1685 21.3817 21.8505 21.6161 21.6161C21.8505 21.3817 22.1685 21.25 22.5 21.25H25C25.3315 21.25 25.6495 21.3817 25.8839 21.6161C26.1183 21.8505 26.25 22.1685 26.25 22.5C26.25 22.8315 26.1183 23.1495 25.8839 23.3839C25.6495 23.6183 25.3315 23.75 25 23.75H22.5C22.1685 23.75 21.8505 23.6183 21.6161 23.3839C21.3817 23.1495 21.25 22.8315 21.25 22.5Z" fill="#05376D"/>
</svg>
