<svg width="40" height="40" viewBox="0 0 40 40" fill="none" xmlns="http://www.w3.org/2000/svg">
<g clip-path="url(#clip0_422_7678)">
<path d="M38.75 31.25H37.5C37.1685 31.25 36.8505 31.1183 36.6161 30.8839C36.3817 30.6495 36.25 30.3315 36.25 30V25C36.25 24.6685 36.3817 24.3505 36.6161 24.1161C36.8505 23.8817 37.1685 23.75 37.5 23.75H38.75C39.0815 23.75 39.3995 23.6183 39.6339 23.3839C39.8683 23.1495 40 22.8315 40 22.5C40 22.1685 39.8683 21.8505 39.6339 21.6161C39.3995 21.3817 39.0815 21.25 38.75 21.25H37.5C36.5054 21.25 35.5516 21.6451 34.8484 22.3483C34.1451 23.0516 33.75 24.0054 33.75 25V26.25H31.125C30.864 24.9839 30.2177 23.8295 29.2747 22.9452C28.3316 22.0609 27.1381 21.4901 25.8578 21.3109L20.225 7.78906C20.0353 7.33333 19.7148 6.94398 19.3041 6.67009C18.8934 6.3962 18.4108 6.25003 17.9172 6.25H3.75C3.08696 6.25 2.45108 6.51339 1.98224 6.98223C1.5134 7.45107 1.25 8.08696 1.25 8.75V23.75C0.553583 24.6786 0.129495 25.7827 0.0252573 26.9387C-0.0789801 28.0947 0.140752 29.2569 0.659833 30.2951C1.17891 31.3332 1.97683 32.2064 2.96418 32.8166C3.95153 33.4268 5.0893 33.75 6.25 33.75H25C26.4403 33.7482 27.8359 33.25 28.9516 32.3392C30.0674 31.4284 30.8349 30.1608 31.125 28.75H33.75V30C33.75 30.9946 34.1451 31.9484 34.8484 32.6517C35.5516 33.3549 36.5054 33.75 37.5 33.75H38.75C39.0815 33.75 39.3995 33.6183 39.6339 33.3839C39.8683 33.1495 40 32.8315 40 32.5C40 32.1685 39.8683 31.8505 39.6339 31.6161C39.3995 31.3817 39.0815 31.25 38.75 31.25ZM23.125 21.25H10V8.75H17.9172L23.125 21.25ZM7.5 8.75V21.25H6.25C5.38939 21.2493 4.53803 21.4275 3.75 21.7734V8.75H7.5ZM25 31.25H6.25C5.25544 31.25 4.30161 30.8549 3.59835 30.1517C2.89509 29.4484 2.5 28.4946 2.5 27.5C2.5 26.5054 2.89509 25.5516 3.59835 24.8483C4.30161 24.1451 5.25544 23.75 6.25 23.75H25C25.9946 23.75 26.9484 24.1451 27.6517 24.8483C28.3549 25.5516 28.75 26.5054 28.75 27.5C28.75 28.4946 28.3549 29.4484 27.6517 30.1517C26.9484 30.8549 25.9946 31.25 25 31.25ZM26.25 27.5C26.25 27.8315 26.1183 28.1495 25.8839 28.3839C25.6495 28.6183 25.3315 28.75 25 28.75H6.25C5.91848 28.75 5.60054 28.6183 5.36612 28.3839C5.1317 28.1495 5 27.8315 5 27.5C5 27.1685 5.1317 26.8505 5.36612 26.6161C5.60054 26.3817 5.91848 26.25 6.25 26.25H25C25.3315 26.25 25.6495 26.3817 25.8839 26.6161C26.1183 26.8505 26.25 27.1685 26.25 27.5Z" fill="#05376D"/>
</g>
<defs>
<clipPath id="clip0_422_7678">
<rect width="40" height="40" fill="white"/>
</clipPath>
</defs>
</svg>
