<svg width="40" height="40" viewBox="0 0 40 40" fill="none" xmlns="http://www.w3.org/2000/svg">
<path d="M20 21.25C20 21.5815 19.8683 21.8995 19.6339 22.1339C19.3995 22.3683 19.0815 22.5 18.75 22.5H11.25C10.9185 22.5 10.6005 22.3683 10.3661 22.1339C10.1317 21.8995 10 21.5815 10 21.25C10 20.9185 10.1317 20.6005 10.3661 20.3661C10.6005 20.1317 10.9185 20 11.25 20H18.75C19.0815 20 19.3995 20.1317 19.6339 20.3661C19.8683 20.6005 20 20.9185 20 21.25ZM18.75 15H11.25C10.9185 15 10.6005 15.1317 10.3661 15.3661C10.1317 15.6005 10 15.9185 10 16.25C10 16.5815 10.1317 16.8995 10.3661 17.1339C10.6005 17.3683 10.9185 17.5 11.25 17.5H18.75C19.0815 17.5 19.3995 17.3683 19.6339 17.1339C19.8683 16.8995 20 16.5815 20 16.25C20 15.9185 19.8683 15.6005 19.6339 15.3661C19.3995 15.1317 19.0815 15 18.75 15ZM36.25 25.2297V35C36.252 35.2204 36.1957 35.4373 36.0868 35.6289C35.9779 35.8205 35.8202 35.9799 35.6299 36.091C35.4395 36.202 35.2232 36.2608 35.0028 36.2612C34.7824 36.2617 34.5658 36.2039 34.375 36.0938L30.625 33.9469L26.875 36.0938C26.6842 36.2039 26.4676 36.2617 26.2472 36.2612C26.0268 36.2608 25.8105 36.202 25.6201 36.091C25.4298 35.9799 25.2721 35.8205 25.1632 35.6289C25.0543 35.4373 24.998 35.2204 25 35V31.25H6.25C5.58696 31.25 4.95107 30.9866 4.48223 30.5178C4.01339 30.0489 3.75 29.413 3.75 28.75V8.75C3.75 8.08696 4.01339 7.45107 4.48223 6.98223C4.95107 6.51339 5.58696 6.25 6.25 6.25H33.75C34.413 6.25 35.0489 6.51339 35.5178 6.98223C35.9866 7.45107 36.25 8.08696 36.25 8.75V13.5203C37.0402 14.277 37.669 15.1858 38.0986 16.192C38.5282 17.1982 38.7497 18.2809 38.7497 19.375C38.7497 20.4691 38.5282 21.5518 38.0986 22.558C37.669 23.5642 37.0402 24.473 36.25 25.2297ZM25 28.75V25.2297C23.6378 23.916 22.777 22.168 22.5659 20.2874C22.3549 18.4067 22.807 16.5114 23.8441 14.9285C24.8812 13.3456 26.4384 12.1743 28.2469 11.6168C30.0553 11.0594 32.0017 11.1507 33.75 11.875V8.75H6.25V28.75H25ZM33.75 26.875C32.7601 27.2886 31.6979 27.5016 30.625 27.5016C29.5521 27.5016 28.4899 27.2886 27.5 26.875V32.8469L30 31.4156C30.1889 31.3076 30.4027 31.2508 30.6203 31.2508C30.8379 31.2508 31.0517 31.3076 31.2406 31.4156L33.7406 32.8469L33.75 26.875ZM36.25 19.375C36.25 18.2625 35.9201 17.1749 35.302 16.2499C34.6839 15.3249 33.8054 14.6039 32.7776 14.1782C31.7498 13.7524 30.6188 13.641 29.5276 13.8581C28.4365 14.0751 27.4342 14.6109 26.6475 15.3975C25.8609 16.1842 25.3251 17.1865 25.1081 18.2776C24.891 19.3688 25.0024 20.4998 25.4282 21.5276C25.8539 22.5554 26.5749 23.4339 27.4999 24.052C28.4249 24.6701 29.5125 25 30.625 25C31.3637 25 32.0951 24.8545 32.7776 24.5718C33.46 24.2891 34.0801 23.8748 34.6025 23.3525C35.1248 22.8301 35.5391 22.21 35.8218 21.5276C36.1045 20.8451 36.25 20.1137 36.25 19.375Z" fill="#05376D"/>
</svg>
