<svg width="20" height="20" viewBox="0 0 20 20" fill="none" xmlns="http://www.w3.org/2000/svg">
<path d="M18.281 7.53104L10.781 15.031C10.7114 15.1008 10.6287 15.1561 10.5376 15.1938C10.4466 15.2316 10.349 15.251 10.2504 15.251C10.1519 15.251 10.0543 15.2316 9.96321 15.1938C9.87216 15.1561 9.78945 15.1008 9.71979 15.031L2.21979 7.53104C2.07906 7.39031 2 7.19944 2 7.00042C2 6.80139 2.07906 6.61052 2.21979 6.46979C2.36052 6.32906 2.55139 6.25 2.75042 6.25C2.94944 6.25 3.14031 6.32906 3.28104 6.46979L10.2504 13.4401L17.2198 6.46979C17.2895 6.40011 17.3722 6.34483 17.4632 6.30712C17.5543 6.26941 17.6519 6.25 17.7504 6.25C17.849 6.25 17.9465 6.26941 18.0376 6.30712C18.1286 6.34483 18.2114 6.40011 18.281 6.46979C18.3507 6.53947 18.406 6.6222 18.4437 6.71324C18.4814 6.80429 18.5008 6.90187 18.5008 7.00042C18.5008 7.09896 18.4814 7.19654 18.4437 7.28759C18.406 7.37863 18.3507 7.46136 18.281 7.53104Z" fill="#4895E8"/>
</svg>
