<svg width="20" height="20" viewBox="0 0 20 20" fill="none" xmlns="http://www.w3.org/2000/svg">
<path d="M17.281 16.2198C17.3507 16.2895 17.406 16.3722 17.4437 16.4632C17.4814 16.5543 17.5008 16.6519 17.5008 16.7504C17.5008 16.849 17.4814 16.9465 17.4437 17.0376C17.406 17.1286 17.3507 17.2114 17.281 17.281C17.2114 17.3507 17.1286 17.406 17.0376 17.4437C16.9465 17.4814 16.849 17.5008 16.7504 17.5008C16.6519 17.5008 16.5543 17.4814 16.4632 17.4437C16.3722 17.406 16.2895 17.3507 16.2198 17.281L10.0004 11.0607L3.78104 17.281C3.64031 17.4218 3.44944 17.5008 3.25042 17.5008C3.05139 17.5008 2.86052 17.4218 2.71979 17.281C2.57906 17.1403 2.5 16.9494 2.5 16.7504C2.5 16.5514 2.57906 16.3605 2.71979 16.2198L8.9401 10.0004L2.71979 3.78104C2.57906 3.64031 2.5 3.44944 2.5 3.25042C2.5 3.05139 2.57906 2.86052 2.71979 2.71979C2.86052 2.57906 3.05139 2.5 3.25042 2.5C3.44944 2.5 3.64031 2.57906 3.78104 2.71979L10.0004 8.9401L16.2198 2.71979C16.3605 2.57906 16.5514 2.5 16.7504 2.5C16.9494 2.5 17.1403 2.57906 17.281 2.71979C17.4218 2.86052 17.5008 3.05139 17.5008 3.25042C17.5008 3.44944 17.4218 3.64031 17.281 3.78104L11.0607 10.0004L17.281 16.2198Z" fill="#222222"/>
</svg>
