<svg width="40" height="40" viewBox="0 0 40 40" fill="none" xmlns="http://www.w3.org/2000/svg">
<path d="M25.6245 11.2498C24.555 11.2492 23.4902 11.3927 22.4589 11.6764C22.0518 11.0122 21.5573 10.4057 20.9886 9.87327L22.4745 7.75296C22.5687 7.61846 22.6355 7.46672 22.671 7.30641C22.7066 7.14611 22.7102 6.98037 22.6817 6.81867C22.6532 6.65696 22.5931 6.50246 22.5049 6.36397C22.4167 6.22549 22.302 6.10573 22.1675 6.01155C22.033 5.91737 21.8813 5.8506 21.721 5.81506C21.5607 5.77952 21.3949 5.7759 21.2332 5.80441C21.0715 5.83292 20.917 5.893 20.7785 5.98122C20.64 6.06945 20.5203 6.18408 20.4261 6.31858L18.9402 8.43733C17.7182 7.82036 16.3684 7.49923 14.9995 7.49983C14.9089 7.49983 14.8183 7.49983 14.7277 7.49983L14.2761 4.95452C14.2524 4.78867 14.1956 4.62928 14.1091 4.48581C14.0226 4.34235 13.9081 4.21774 13.7725 4.11939C13.6368 4.02104 13.4828 3.95096 13.3196 3.91332C13.1563 3.87567 12.9872 3.87122 12.8222 3.90024C12.6572 3.92926 12.4997 3.99115 12.3591 4.08224C12.2185 4.17333 12.0976 4.29175 12.0037 4.43048C11.9097 4.5692 11.8446 4.72539 11.8122 4.88976C11.7799 5.05414 11.7809 5.22335 11.8152 5.38733L12.2652 7.94046C10.8788 8.39899 9.62903 9.19657 8.62923 10.2608L6.50111 8.77171C6.36671 8.67521 6.2145 8.60635 6.05329 8.56913C5.89208 8.53191 5.72508 8.52706 5.56199 8.55486C5.39889 8.58267 5.24293 8.64257 5.10316 8.73111C4.96339 8.81964 4.84259 8.93505 4.74776 9.07062C4.65293 9.2062 4.58596 9.35925 4.55073 9.52091C4.5155 9.68257 4.51271 9.84961 4.54252 10.0123C4.57234 10.1751 4.63417 10.3303 4.72442 10.469C4.81467 10.6076 4.93156 10.727 5.06829 10.8201L7.18704 12.3076C6.56789 13.5293 6.24663 14.8802 6.24954 16.2498C6.24954 16.3389 6.24954 16.4295 6.24954 16.5186L3.70423 16.9686C3.39615 17.0226 3.11949 17.1901 2.92888 17.438C2.73826 17.686 2.64754 17.9965 2.67462 18.3081C2.7017 18.6197 2.84461 18.9098 3.07514 19.1212C3.30568 19.3325 3.60708 19.4498 3.91986 19.4498C3.99265 19.4497 4.06531 19.4435 4.13704 19.4311L6.68704 18.9811C6.91109 19.6632 7.21864 20.315 7.60267 20.9217C6.40703 22.0323 5.5735 23.4771 5.21064 25.0681C4.84777 26.6591 4.97239 28.3225 5.56825 29.8417C6.16411 31.3608 7.20361 32.6654 8.55137 33.5854C9.89914 34.5054 11.4927 34.9983 13.1245 34.9998H25.6245C28.774 34.9998 31.7944 33.7487 34.0214 31.5217C36.2484 29.2947 37.4995 26.2743 37.4995 23.1248C37.4995 19.9754 36.2484 16.9549 34.0214 14.7279C31.7944 12.5009 28.774 11.2498 25.6245 11.2498ZM8.74954 16.2498C8.75029 14.9262 9.17127 13.6369 9.9518 12.5679C10.7323 11.4988 11.8321 10.7052 13.0927 10.3014C14.3532 9.89751 15.7094 9.9043 16.9659 10.3207C18.2223 10.7372 19.3141 11.5418 20.0839 12.6186C17.5341 13.9605 15.5568 16.1808 14.5183 18.8686C12.8751 18.5849 11.1844 18.8124 9.67454 19.5201C9.07005 18.5364 8.74988 17.4045 8.74954 16.2498ZM25.6245 32.4998H13.1245C12.3552 32.4984 11.5943 32.3392 10.889 32.032C10.1836 31.7248 9.54879 31.2762 9.02371 30.714C8.49863 30.1517 8.09448 29.4876 7.83624 28.7629C7.578 28.0382 7.47117 27.2683 7.52236 26.5006C7.57354 25.733 7.78165 24.984 8.13381 24.3C8.48597 23.616 8.9747 23.0115 9.56979 22.5239C10.1649 22.0363 10.8537 21.676 11.5935 21.4651C12.3334 21.2543 13.1087 21.1975 13.8714 21.2983C13.8136 21.6686 13.773 22.0467 13.7511 22.428C13.732 22.7595 13.8455 23.085 14.0664 23.3329C14.2873 23.5808 14.5977 23.7308 14.9292 23.7498C15.2608 23.7689 15.5863 23.6555 15.8342 23.4345C16.0821 23.2136 16.232 22.9032 16.2511 22.5717C16.2862 21.9482 16.3846 21.3299 16.5449 20.7264C16.5449 20.7014 16.5589 20.6764 16.5636 20.6514C17.023 18.963 17.9454 17.4367 19.2264 16.2449C20.5075 15.053 22.0962 14.243 23.8133 13.9064C25.5304 13.5698 27.3074 13.7199 28.9436 14.3398C30.5799 14.9598 32.0102 16.0249 33.0732 17.4148C34.1361 18.8047 34.7892 20.4641 34.9589 22.2056C35.1285 23.9471 34.8079 25.7014 34.0332 27.2703C33.2585 28.8392 32.0606 30.1603 30.5748 31.0844C29.0889 32.0085 27.3743 32.4987 25.6245 32.4998Z" fill="#05376D"/>
</svg>
