<svg width="70" height="97" viewBox="0 0 70 97" fill="none" xmlns="http://www.w3.org/2000/svg">
<path d="M66.5301 51.1875L39.375 24.0324C38.9702 23.6244 38.4884 23.3009 37.9575 23.0808C37.4266 22.8606 36.8572 22.7482 36.2824 22.75H10.9375C10.3574 22.75 9.80096 22.9805 9.39073 23.3907C8.98049 23.801 8.75002 24.3574 8.75002 24.9375V50.2824C8.74819 50.8572 8.86061 51.4266 9.08077 51.9575C9.30093 52.4884 9.62442 52.9702 10.0324 53.375L37.1875 80.5301C37.5938 80.9365 38.0761 81.2588 38.607 81.4787C39.1379 81.6987 39.7069 81.8119 40.2815 81.8119C40.8561 81.8119 41.4251 81.6987 41.9559 81.4787C42.4868 81.2588 42.9691 80.9365 43.3754 80.5301L66.5301 57.3754C66.9365 56.9691 67.2588 56.4868 67.4787 55.9559C67.6987 55.4251 67.8119 54.8561 67.8119 54.2815C67.8119 53.7069 67.6987 53.1379 67.4787 52.607C67.2588 52.0761 66.9365 51.5938 66.5301 51.1875ZM40.2801 77.4375L13.125 50.2824V27.125H36.2824L63.4375 54.2801L40.2801 77.4375ZM26.25 36.9688C26.25 37.6177 26.0576 38.2521 25.697 38.7917C25.3365 39.3313 24.824 39.7519 24.2245 40.0003C23.6249 40.2486 22.9651 40.3136 22.3286 40.187C21.6921 40.0604 21.1075 39.7479 20.6486 39.289C20.1897 38.8301 19.8772 38.2454 19.7506 37.6089C19.624 36.9724 19.6889 36.3127 19.9373 35.7131C20.1856 35.1135 20.6062 34.6011 21.1458 34.2405C21.6854 33.88 22.3198 33.6875 22.9688 33.6875C23.839 33.6875 24.6736 34.0332 25.289 34.6486C25.9043 35.2639 26.25 36.0985 26.25 36.9688Z" fill="#05376D"/>
</svg>
