<svg width="20" height="20" viewBox="0 0 20 20" fill="none" xmlns="http://www.w3.org/2000/svg">
<path d="M18.125 9.99997C18.125 10.0398 18.125 10.0781 18.125 10.1187C18.0984 11.2328 17.6852 12.5 15.9375 12.5C14.1297 12.5 13.75 11.1406 13.75 9.99997V6.87497C13.7502 6.78929 13.7328 6.70448 13.6988 6.62582C13.6648 6.54716 13.615 6.47633 13.5526 6.41772C13.4901 6.3591 13.4162 6.31397 13.3355 6.28511C13.2548 6.25625 13.1691 6.24429 13.0836 6.24997C12.9226 6.26379 12.7728 6.33816 12.6645 6.45807C12.5562 6.57797 12.4974 6.7345 12.5 6.89606V7.20856C11.9358 6.70288 11.2316 6.37997 10.4803 6.28236C9.72891 6.18476 8.96561 6.31704 8.29092 6.66178C7.61623 7.00652 7.06178 7.54754 6.70062 8.21359C6.33947 8.87964 6.18853 9.63947 6.26771 10.393C6.34688 11.1465 6.65245 11.8584 7.14416 12.4348C7.63588 13.0112 8.29066 13.4252 9.02228 13.6222C9.75389 13.8191 10.528 13.7899 11.2427 13.5382C11.9573 13.2866 12.579 12.8244 13.0258 12.2125C13.1039 12.3491 13.1922 12.4797 13.2898 12.6031C13.7094 13.125 14.5086 13.75 15.9375 13.75C16.1788 13.7508 16.4198 13.7312 16.6578 13.6914C16.7167 13.6816 16.7771 13.6888 16.8319 13.7122C16.8868 13.7357 16.9338 13.7743 16.9674 13.8236C17.001 13.8729 17.0198 13.9308 17.0216 13.9904C17.0233 14.05 17.008 14.1089 16.9773 14.1601C16.2428 15.3923 15.1953 16.4081 13.9411 17.1045C12.687 17.8008 11.2709 18.1529 9.83672 18.125C5.55703 18.039 2.04687 14.5984 1.88125 10.3211C1.83889 9.24159 2.01222 8.16452 2.3911 7.15284C2.76998 6.14117 3.3468 5.21521 4.08783 4.42913C4.82885 3.64305 5.7192 3.01264 6.70678 2.57477C7.69436 2.13691 8.75934 1.90038 9.83942 1.87903C10.9195 1.85768 11.993 2.05193 12.9971 2.45043C14.0012 2.84892 14.9158 3.44366 15.6873 4.19984C16.4588 4.95602 17.0718 5.85846 17.4903 6.85437C17.9089 7.85029 18.1247 8.91967 18.125 9.99997ZM7.5 9.99997C7.5 10.4944 7.64662 10.9778 7.92133 11.3889C8.19603 11.8 8.58648 12.1204 9.04329 12.3097C9.50011 12.4989 10.0028 12.5484 10.4877 12.4519C10.9727 12.3555 11.4181 12.1174 11.7678 11.7677C12.1174 11.4181 12.3555 10.9726 12.452 10.4877C12.5484 10.0027 12.4989 9.50007 12.3097 9.04326C12.1205 8.58644 11.8 8.196 11.3889 7.92129C10.9778 7.64659 10.4945 7.49997 10 7.49997C9.33696 7.49997 8.70107 7.76336 8.23223 8.2322C7.76339 8.70104 7.5 9.33692 7.5 9.99997Z" fill="#4895E8"/>
</svg>
