<svg width="40" height="40" viewBox="0 0 40 40" fill="none" xmlns="http://www.w3.org/2000/svg">
<path d="M39.7341 16.861L35.7466 8.88284C35.5997 8.58919 35.3964 8.32736 35.1483 8.11229C34.9002 7.89722 34.6121 7.73313 34.3006 7.62939C33.9891 7.52565 33.6602 7.48428 33.3327 7.50766C33.0052 7.53104 32.6855 7.61871 32.3919 7.76565L28.5059 9.70784L20.32 7.54222C20.11 7.48756 19.8894 7.48756 19.6794 7.54222L11.4934 9.70784L7.6075 7.76565C7.31388 7.61871 6.99419 7.53104 6.66668 7.50766C6.33917 7.48428 6.01027 7.52565 5.69875 7.62939C5.38723 7.73313 5.0992 7.89722 4.85111 8.11229C4.60301 8.32736 4.39971 8.58919 4.25281 8.88284L0.265312 16.8594C0.118369 17.153 0.0307036 17.4727 0.00732308 17.8002C-0.0160574 18.1277 0.0253048 18.4566 0.129048 18.7682C0.23279 19.0797 0.396882 19.3677 0.611951 19.6158C0.82702 19.8639 1.08885 20.0672 1.3825 20.2141L5.60125 22.325L14.2716 28.5172C14.3993 28.6081 14.5429 28.6744 14.695 28.7125L24.695 31.2125C24.9044 31.265 25.1239 31.2624 25.332 31.2049C25.5401 31.1474 25.7298 31.037 25.8825 30.8844L34.4872 22.2782L38.6153 20.2141C39.208 19.9174 39.6585 19.3976 39.868 18.7688C40.0775 18.14 40.0288 17.4538 39.7325 16.861H39.7341ZM31.1575 22.075L25.7809 17.7688C25.5401 17.5759 25.2364 17.4789 24.9283 17.4965C24.6202 17.5141 24.3295 17.645 24.1122 17.8641C21.3294 20.6672 18.2278 20.3125 16.2497 19.0625L23.0059 12.5H27.9763L32.2278 21.0016L31.1575 22.075ZM6.48875 10L9.68719 11.5969L5.69188 19.5735L2.49969 17.9782L6.48875 10ZM24.6138 28.6141L15.5341 26.3453L7.84656 20.8547L12.2216 12.1047L19.9997 10.0438L21.5309 10.4485L14.4997 17.2735L14.4872 17.2875C14.2225 17.5522 14.0206 17.8729 13.8965 18.2261C13.7723 18.5792 13.729 18.9557 13.7698 19.3278C13.8106 19.6998 13.9345 20.058 14.1322 20.3758C14.3299 20.6937 14.5965 20.963 14.9122 21.1641C18.1247 23.2157 22.0013 22.8828 25.0544 20.3828L29.3747 23.8532L24.6138 28.6141ZM34.3013 19.5719L30.3138 11.6032L33.5106 10L37.4997 17.9782L34.3013 19.5719ZM20.5903 34.0516C20.5228 34.3218 20.367 34.5616 20.1476 34.7332C19.9282 34.9047 19.6579 34.9981 19.3794 34.9985C19.2767 34.9983 19.1744 34.9857 19.0747 34.961L12.5638 33.3328C12.4115 33.2953 12.2677 33.229 12.1403 33.1375L8.02313 30.1969C7.76997 29.9981 7.60324 29.7094 7.55766 29.3908C7.51208 29.0721 7.59116 28.7482 7.77843 28.4865C7.96569 28.2247 8.24672 28.0452 8.56299 27.9855C8.87925 27.9257 9.20638 27.9903 9.47625 28.1657L13.3997 30.9688L19.6872 32.5375C20.0087 32.618 20.2852 32.8228 20.4557 33.107C20.6262 33.3913 20.6769 33.7316 20.5966 34.0532L20.5903 34.0516Z" fill="#05376D"/>
</svg>
