<svg width="40" height="40" viewBox="0 0 40 40" fill="none" xmlns="http://www.w3.org/2000/svg">
<path d="M35 23.75V21.25C34.9916 18.1501 34.0267 15.1283 32.2369 12.5972C30.4472 10.0661 27.9198 8.14905 25 7.10781V6.25C25 5.58696 24.7366 4.95107 24.2678 4.48223C23.7989 4.01339 23.163 3.75 22.5 3.75H17.5C16.837 3.75 16.2011 4.01339 15.7322 4.48223C15.2634 4.95107 15 5.58696 15 6.25V7.10781C12.0802 8.14905 9.55284 10.0661 7.76309 12.5972C5.97334 15.1283 5.0084 18.1501 5 21.25V23.75C4.33696 23.75 3.70107 24.0134 3.23223 24.4822C2.76339 24.9511 2.5 25.587 2.5 26.25V30C2.5 30.663 2.76339 31.2989 3.23223 31.7678C3.70107 32.2366 4.33696 32.5 5 32.5H35C35.663 32.5 36.2989 32.2366 36.7678 31.7678C37.2366 31.2989 37.5 30.663 37.5 30V26.25C37.5 25.587 37.2366 24.9511 36.7678 24.4822C36.2989 24.0134 35.663 23.75 35 23.75ZM32.5 21.25V23.75H25V9.79219C27.2251 10.7711 29.1182 12.3748 30.4495 14.4086C31.7808 16.4425 32.4931 18.8191 32.5 21.25ZM22.5 6.25V23.75H17.5V6.25H22.5ZM7.5 21.25C7.50686 18.8191 8.21918 16.4425 9.55051 14.4086C10.8818 12.3748 12.7749 10.7711 15 9.79219V23.75H7.5V21.25ZM35 30H5V26.25H35V30Z" fill="#05376D"/>
</svg>
