<svg width="40" height="40" viewBox="0 0 40 40" fill="none" xmlns="http://www.w3.org/2000/svg">
<path d="M28.75 3.75H11.25C10.587 3.75 9.95107 4.01339 9.48223 4.48223C9.01339 4.95107 8.75 5.58696 8.75 6.25V11.875C8.75084 12.263 8.84158 12.6455 9.01508 12.9925C9.18858 13.3395 9.44014 13.6415 9.75 13.875L17.9172 20L9.75 26.125C9.44014 26.3585 9.18858 26.6605 9.01508 27.0075C8.84158 27.3545 8.75084 27.737 8.75 28.125V33.75C8.75 34.413 9.01339 35.0489 9.48223 35.5178C9.95107 35.9866 10.587 36.25 11.25 36.25H28.75C29.413 36.25 30.0489 35.9866 30.5178 35.5178C30.9866 35.0489 31.25 34.413 31.25 33.75V28.1812C31.2491 27.7948 31.1591 27.4137 30.9871 27.0677C30.815 26.7216 30.5654 26.4199 30.2578 26.1859L22.0734 20L30.2578 13.8125C30.5656 13.579 30.8152 13.2776 30.9874 12.9318C31.1595 12.586 31.2493 12.205 31.25 11.8188V6.25C31.25 5.58696 30.9866 4.95107 30.5178 4.48223C30.0489 4.01339 29.413 3.75 28.75 3.75ZM28.75 6.25V8.75H11.25V6.25H28.75ZM28.75 33.75H11.25V28.125L20 21.5625L28.75 28.1797V33.75ZM20 18.4375L11.25 11.875V11.25H28.75V11.8188L20 18.4375Z" fill="#05376D"/>
</svg>
