<svg width="40" height="40" viewBox="0 0 40 40" fill="none" xmlns="http://www.w3.org/2000/svg">
<path d="M34.9138 6.26112C34.8959 5.95531 34.7664 5.66671 34.5498 5.45011C34.3332 5.2335 34.0446 5.10398 33.7388 5.08612C21.8435 4.38768 12.3153 7.96893 8.25284 14.6877C6.84466 16.986 6.15075 19.6507 6.25909 22.3439C6.34816 24.8314 7.07316 27.3439 8.41378 29.8205L5.36534 32.8674C5.13079 33.1019 4.99902 33.42 4.99902 33.7517C4.99902 34.0834 5.13079 34.4016 5.36534 34.6361C5.59989 34.8707 5.91801 35.0024 6.24972 35.0024C6.58142 35.0024 6.89954 34.8707 7.13409 34.6361L10.181 31.5877C12.656 32.9267 15.17 33.6517 17.656 33.7408C17.8299 33.7471 18.0034 33.7502 18.1763 33.7502C20.6946 33.7569 23.1653 33.0634 25.3122 31.7471C32.031 27.6846 35.6138 18.158 34.9138 6.26112ZM24.0232 29.6096C20.4685 31.7627 16.2607 31.7971 12.0372 29.7299L25.8857 15.883C26.0018 15.7669 26.0939 15.629 26.1568 15.4772C26.2196 15.3255 26.252 15.1629 26.252 14.9986C26.252 14.8344 26.2196 14.6717 26.1568 14.52C26.0939 14.3683 26.0018 14.2304 25.8857 14.1142C25.7695 13.9981 25.6316 13.906 25.4799 13.8431C25.3282 13.7803 25.1655 13.7479 25.0013 13.7479C24.837 13.7479 24.6744 13.7803 24.5227 13.8431C24.3709 13.906 24.233 13.9981 24.1169 14.1142L10.27 27.9689C8.20909 23.7502 8.23878 19.5314 10.3903 15.983C13.8419 10.2846 22.0466 7.16424 32.47 7.53612C32.8435 17.9517 29.7216 26.158 24.0232 29.6096Z" fill="#05376D"/>
</svg>
