<svg width="40" height="40" viewBox="0 0 40 40" fill="none" xmlns="http://www.w3.org/2000/svg">
<path d="M33.7168 18.4642C33.6694 18.2638 33.5733 18.0783 33.4371 17.924C33.3008 17.7697 33.1285 17.6515 32.9355 17.5798L23.9339 14.2032L26.2246 2.7454C26.2764 2.47918 26.2403 2.20332 26.1216 1.95943C26.003 1.71555 25.8082 1.51688 25.5667 1.3934C25.3252 1.26992 25.0501 1.22834 24.7829 1.27493C24.5157 1.32151 24.271 1.45374 24.0855 1.65165L6.5855 20.4017C6.44337 20.5514 6.34055 20.7341 6.28622 20.9333C6.2319 21.1325 6.22777 21.342 6.2742 21.5432C6.32063 21.7444 6.41617 21.9309 6.55229 22.0862C6.68841 22.2414 6.86086 22.3606 7.05425 22.4329L16.0589 25.8095L13.7746 37.2548C13.7227 37.521 13.7588 37.7969 13.8775 38.0407C13.9962 38.2846 14.1909 38.4833 14.4324 38.6068C14.6739 38.7303 14.949 38.7718 15.2162 38.7253C15.4834 38.6787 15.7282 38.5464 15.9136 38.3485L33.4136 19.5985C33.5532 19.4487 33.6538 19.2669 33.7067 19.0691C33.7595 18.8713 33.763 18.6636 33.7168 18.4642ZM17.0886 33.4376L18.7246 25.2532C18.7831 24.9629 18.7367 24.6613 18.5936 24.4021C18.4506 24.1428 18.2201 23.9428 17.9433 23.8376L9.68706 20.736L22.9089 6.5704L21.2746 14.7548C21.216 15.045 21.2624 15.3467 21.4055 15.6059C21.5486 15.8652 21.779 16.0652 22.0558 16.1704L30.3058 19.2642L17.0886 33.4376Z" fill="#05376D"/>
</svg>
