<svg width="40" height="40" viewBox="0 0 40 40" fill="none" xmlns="http://www.w3.org/2000/svg">
<path d="M18.75 16.1252V27.5002C18.75 27.8317 18.8817 28.1497 19.1161 28.3841C19.3505 28.6185 19.6685 28.7502 20 28.7502C20.3315 28.7502 20.6495 28.6185 20.8839 28.3841C21.1183 28.1497 21.25 27.8317 21.25 27.5002V16.1252C22.7676 15.8154 24.116 14.9532 25.034 13.7057C25.952 12.4582 26.374 10.9143 26.2183 9.37328C26.0627 7.83228 25.3404 6.40397 24.1914 5.36527C23.0425 4.32657 21.5488 3.75146 20 3.75146C18.4512 3.75146 16.9575 4.32657 15.8086 5.36527C14.6596 6.40397 13.9373 7.83228 13.7816 9.37328C13.626 10.9143 14.048 12.4582 14.966 13.7057C15.884 14.9532 17.2324 15.8154 18.75 16.1252ZM20 6.25019C20.7417 6.25019 21.4667 6.47012 22.0834 6.88218C22.7001 7.29423 23.1807 7.8799 23.4645 8.56513C23.7484 9.25035 23.8226 10.0043 23.6779 10.7318C23.5333 11.4592 23.1761 12.1274 22.6517 12.6518C22.1272 13.1763 21.459 13.5334 20.7316 13.6781C20.0042 13.8228 19.2502 13.7486 18.5649 13.4647C17.8797 13.1809 17.294 12.7003 16.882 12.0836C16.4699 11.4669 16.25 10.7419 16.25 10.0002C16.25 9.00563 16.6451 8.0518 17.3483 7.34854C18.0516 6.64528 19.0054 6.25019 20 6.25019ZM37.5 27.5002C37.5 32.3721 28.4828 35.0002 20 35.0002C11.5172 35.0002 2.5 32.3721 2.5 27.5002C2.5 26.2908 3.09531 24.5111 5.9375 22.9049C7.85313 21.8205 10.4875 20.9877 13.5578 20.4955C13.7202 20.4699 13.8861 20.4764 14.046 20.5149C14.2058 20.5534 14.3565 20.6229 14.4895 20.7196C14.6225 20.8163 14.7351 20.9383 14.821 21.0785C14.9068 21.2187 14.9642 21.3745 14.9898 21.5369C15.0155 21.6993 15.0089 21.8652 14.9704 22.025C14.932 22.1849 14.8624 22.3356 14.7657 22.4686C14.669 22.6016 14.5471 22.7142 14.4068 22.8001C14.2666 22.8859 14.1108 22.9433 13.9484 22.9689C11.2078 23.4096 8.79219 24.1611 7.16406 25.0861C5.78906 25.8596 5 26.7408 5 27.5002C5 29.5877 10.7063 32.5002 20 32.5002C29.2938 32.5002 35 29.5877 35 27.5002C35 26.7408 34.2109 25.8596 32.8359 25.0799C31.2016 24.1549 28.7922 23.4033 26.0516 22.9627C25.8857 22.941 25.7259 22.8863 25.5816 22.8017C25.4372 22.7172 25.3114 22.6045 25.2114 22.4704C25.1114 22.3363 25.0393 22.1835 24.9995 22.0211C24.9596 21.8586 24.9528 21.6898 24.9793 21.5247C25.0059 21.3596 25.0653 21.2014 25.1541 21.0597C25.2429 20.9179 25.3593 20.7954 25.4963 20.6994C25.6333 20.6035 25.7881 20.536 25.9517 20.5009C26.1152 20.4659 26.2842 20.4641 26.4484 20.4955C29.5188 20.9877 32.1531 21.8205 34.0687 22.9049C36.9047 24.5111 37.5 26.2908 37.5 27.5002Z" fill="#05376D"/>
</svg>
