<svg width="40" height="40" viewBox="0 0 40 40" fill="none" xmlns="http://www.w3.org/2000/svg">
<path d="M35.6437 2.6782C35.4587 2.56713 35.248 2.50588 35.0322 2.5004C34.8165 2.49493 34.603 2.54541 34.4125 2.64695L15.9375 12.5001H5C4.33696 12.5001 3.70107 12.7635 3.23223 13.2323C2.76339 13.7011 2.5 14.337 2.5 15.0001V31.2501C2.5 31.9131 2.76339 32.549 3.23223 33.0178C3.70107 33.4867 4.33696 33.7501 5 33.7501H18.75C19.413 33.7501 20.0489 33.4867 20.5178 33.0178C20.9866 32.549 21.25 31.9131 21.25 31.2501V26.2501C21.2503 26.1283 21.2324 26.0072 21.1969 25.8907L17.7406 14.3751L33.75 5.83288V25.0001H31.25V23.7501C31.25 23.4185 31.1183 23.1006 30.8839 22.8662C30.6495 22.6318 30.3315 22.5001 30 22.5001C29.6685 22.5001 29.3505 22.6318 29.1161 22.8662C28.8817 23.1006 28.75 23.4185 28.75 23.7501V25.0001C28.75 25.6631 29.0134 26.299 29.4822 26.7678C29.9511 27.2367 30.587 27.5001 31.25 27.5001H33.75C34.413 27.5001 35.0489 27.2367 35.5178 26.7678C35.9866 26.299 36.25 25.6631 36.25 25.0001V3.75007C36.2501 3.53427 36.1943 3.32213 36.088 3.1343C35.9818 2.94646 35.8287 2.78933 35.6437 2.6782ZM15.3203 15.0001L18.3203 25.0001H10V15.0001H15.3203ZM7.5 15.0001V25.0001H5V15.0001H7.5ZM5 31.2501V27.5001H18.75V31.2501H5Z" fill="#05376D"/>
</svg>
