<svg width="40" height="40" viewBox="0 0 40 40" fill="none" xmlns="http://www.w3.org/2000/svg">
<path d="M34.9639 23.4518C35.0031 23.6112 35.0105 23.7768 34.9857 23.9391C34.9609 24.1014 34.9044 24.2572 34.8194 24.3977C34.7344 24.5381 34.6225 24.6605 34.4902 24.7577C34.3579 24.8549 34.2077 24.9251 34.0483 24.9643L30.1983 25.9018L31.2076 29.669C31.2502 29.8276 31.261 29.993 31.2396 30.1558C31.2181 30.3186 31.1648 30.4756 31.0827 30.6178C31.0006 30.76 30.8912 30.8846 30.7609 30.9846C30.6306 31.0845 30.4819 31.1578 30.3233 31.2002C30.218 31.2305 30.1093 31.2474 29.9998 31.2502C29.7248 31.2499 29.4576 31.159 29.2395 30.9915C29.0215 30.824 28.8647 30.5893 28.7936 30.3236L27.5873 25.8236L21.2498 22.1658V29.483L24.6342 32.8658C24.7503 32.982 24.8425 33.1198 24.9053 33.2716C24.9682 33.4233 25.0005 33.586 25.0005 33.7502C25.0005 33.9145 24.9682 34.0771 24.9053 34.2288C24.8425 34.3806 24.7503 34.5184 24.6342 34.6346C24.5181 34.7507 24.3802 34.8428 24.2284 34.9057C24.0767 34.9686 23.9141 35.0009 23.7498 35.0009C23.5856 35.0009 23.4229 34.9686 23.2712 34.9057C23.1195 34.8428 22.9816 34.7507 22.8654 34.6346L19.9998 31.7674L17.1342 34.6346C17.0181 34.7507 16.8802 34.8428 16.7284 34.9057C16.5767 34.9686 16.4141 35.0009 16.2498 35.0009C16.0856 35.0009 15.9229 34.9686 15.7712 34.9057C15.6195 34.8428 15.4816 34.7507 15.3654 34.6346C15.2493 34.5184 15.1572 34.3806 15.0943 34.2288C15.0315 34.0771 14.9991 33.9145 14.9991 33.7502C14.9991 33.586 15.0315 33.4233 15.0943 33.2716C15.1572 33.1198 15.2493 32.982 15.3654 32.8658L18.7498 29.483V22.1658L12.4139 25.8236L11.2076 30.3236C11.1364 30.5895 10.9794 30.8245 10.761 30.992C10.5426 31.1595 10.2751 31.2503 9.99982 31.2502C9.89013 31.25 9.78092 31.2358 9.67482 31.208C9.51618 31.1656 9.36746 31.0923 9.23715 30.9924C9.10684 30.8925 8.99749 30.7678 8.91537 30.6256C8.83324 30.4834 8.77993 30.3264 8.7585 30.1636C8.73706 30.0008 8.74792 29.8354 8.79044 29.6768L9.79982 25.9096L5.94982 24.9721C5.62783 24.8929 5.35047 24.6891 5.17876 24.4055C5.00704 24.1218 4.95504 23.7816 5.03419 23.4596C5.11334 23.1376 5.31716 22.8602 5.60081 22.6885C5.88446 22.5168 6.2247 22.4648 6.54669 22.544L11.1483 23.6736L17.4998 20.0002L11.1498 16.3346L6.54826 17.4643C6.45063 17.4884 6.35039 17.5005 6.24982 17.5002C5.94418 17.5004 5.64905 17.3886 5.42023 17.186C5.19142 16.9834 5.04477 16.7039 5.00803 16.4005C4.97128 16.0971 5.04697 15.7907 5.22079 15.5393C5.39462 15.2879 5.65453 15.1089 5.95138 15.0361L9.80138 14.0986L8.79201 10.3236C8.70622 10.0033 8.75121 9.66202 8.91706 9.37486C9.08291 9.08769 9.35605 8.87818 9.67638 8.79239C9.99671 8.70661 10.338 8.7516 10.6252 8.91745C10.9123 9.0833 11.1219 9.35644 11.2076 9.67677L12.4139 14.1768L18.7498 17.8346V10.5174L15.3654 7.13458C15.1309 6.90003 14.9991 6.58191 14.9991 6.25021C14.9991 6.08596 15.0315 5.92333 15.0943 5.77159C15.1572 5.61984 15.2493 5.48197 15.3654 5.36583C15.4816 5.24969 15.6195 5.15757 15.7712 5.09472C15.9229 5.03186 16.0856 4.99951 16.2498 4.99951C16.5815 4.99951 16.8996 5.13128 17.1342 5.36583L19.9998 8.23302L22.8654 5.36583C23.1 5.13128 23.4181 4.99951 23.7498 4.99951C24.0815 4.99951 24.3996 5.13128 24.6342 5.36583C24.8687 5.60038 25.0005 5.9185 25.0005 6.25021C25.0005 6.58191 24.8687 6.90003 24.6342 7.13458L21.2498 10.5174V17.8346L27.5858 14.1768L28.792 9.67677C28.8778 9.35644 29.0873 9.0833 29.3745 8.91745C29.6616 8.7516 30.0029 8.70661 30.3233 8.79239C30.6436 8.87818 30.9167 9.08769 31.0826 9.37486C31.2484 9.66202 31.2934 10.0033 31.2076 10.3236L30.1983 14.0908L34.0483 15.0283C34.3534 15.0935 34.6231 15.2704 34.8044 15.5243C34.9858 15.7783 35.0656 16.0908 35.0282 16.4006C34.9908 16.7104 34.8389 16.9949 34.6023 17.1984C34.3658 17.4019 34.0617 17.5095 33.7498 17.5002C33.6492 17.5005 33.549 17.4884 33.4514 17.4643L28.8498 16.3346L22.4998 20.0002L28.8498 23.6658L33.4514 22.5361C33.6108 22.4969 33.7764 22.4895 33.9387 22.5143C34.101 22.5391 34.2569 22.5956 34.3973 22.6806C34.5378 22.7657 34.6601 22.8775 34.7573 23.0098C34.8545 23.1422 34.9247 23.2923 34.9639 23.4518Z" fill="#05376D"/>
</svg>
