<svg width="28" height="27" viewBox="0 0 28 27" fill="none" xmlns="http://www.w3.org/2000/svg">
<path d="M0.988281 12.9876C0.988281 8.22453 0.988281 5.84237 2.4686 4.36332C3.94892 2.88426 6.32981 2.883 11.0929 2.883H16.1451C20.9082 2.883 23.2903 2.883 24.7694 4.36332C26.2485 5.84364 26.2497 8.22453 26.2497 12.9876V15.5137C26.2497 20.2768 26.2497 22.6589 24.7694 24.138C23.2891 25.617 20.9082 25.6183 16.1451 25.6183H11.0929C6.32981 25.6183 3.94766 25.6183 2.4686 24.138C0.989544 22.6577 0.988281 20.2768 0.988281 15.5137V12.9876Z" stroke="#4895E8" stroke-width="1.97698"/>
<path d="M7.30394 2.88307V0.988464M19.9347 2.88307V0.988464M1.62012 9.19843H25.6185" stroke="#4895E8" stroke-width="1.97698" stroke-linecap="round"/>
<path d="M21.1979 19.3028C21.1979 19.6378 21.0648 19.9591 20.8279 20.196C20.5911 20.4328 20.2698 20.5659 19.9348 20.5659C19.5998 20.5659 19.2786 20.4328 19.0417 20.196C18.8048 19.9591 18.6717 19.6378 18.6717 19.3028C18.6717 18.9679 18.8048 18.6466 19.0417 18.4097C19.2786 18.1728 19.5998 18.0398 19.9348 18.0398C20.2698 18.0398 20.5911 18.1728 20.8279 18.4097C21.0648 18.6466 21.1979 18.9679 21.1979 19.3028ZM21.1979 14.2506C21.1979 14.5855 21.0648 14.9068 20.8279 15.1437C20.5911 15.3806 20.2698 15.5136 19.9348 15.5136C19.5998 15.5136 19.2786 15.3806 19.0417 15.1437C18.8048 14.9068 18.6717 14.5855 18.6717 14.2506C18.6717 13.9156 18.8048 13.5943 19.0417 13.3574C19.2786 13.1206 19.5998 12.9875 19.9348 12.9875C20.2698 12.9875 20.5911 13.1206 20.8279 13.3574C21.0648 13.5943 21.1979 13.9156 21.1979 14.2506ZM14.8825 19.3028C14.8825 19.6378 14.7494 19.9591 14.5126 20.196C14.2757 20.4328 13.9544 20.5659 13.6194 20.5659C13.2845 20.5659 12.9632 20.4328 12.7263 20.196C12.4895 19.9591 12.3564 19.6378 12.3564 19.3028C12.3564 18.9679 12.4895 18.6466 12.7263 18.4097C12.9632 18.1728 13.2845 18.0398 13.6194 18.0398C13.9544 18.0398 14.2757 18.1728 14.5126 18.4097C14.7494 18.6466 14.8825 18.9679 14.8825 19.3028ZM14.8825 14.2506C14.8825 14.5855 14.7494 14.9068 14.5126 15.1437C14.2757 15.3806 13.9544 15.5136 13.6194 15.5136C13.2845 15.5136 12.9632 15.3806 12.7263 15.1437C12.4895 14.9068 12.3564 14.5855 12.3564 14.2506C12.3564 13.9156 12.4895 13.5943 12.7263 13.3574C12.9632 13.1206 13.2845 12.9875 13.6194 12.9875C13.9544 12.9875 14.2757 13.1206 14.5126 13.3574C14.7494 13.5943 14.8825 13.9156 14.8825 14.2506ZM8.56716 19.3028C8.56716 19.6378 8.43409 19.9591 8.19721 20.196C7.96034 20.4328 7.63908 20.5659 7.30409 20.5659C6.9691 20.5659 6.64783 20.4328 6.41096 20.196C6.17409 19.9591 6.04102 19.6378 6.04102 19.3028C6.04102 18.9679 6.17409 18.6466 6.41096 18.4097C6.64783 18.1728 6.9691 18.0398 7.30409 18.0398C7.63908 18.0398 7.96034 18.1728 8.19721 18.4097C8.43409 18.6466 8.56716 18.9679 8.56716 19.3028ZM8.56716 14.2506C8.56716 14.5855 8.43409 14.9068 8.19721 15.1437C7.96034 15.3806 7.63908 15.5136 7.30409 15.5136C6.9691 15.5136 6.64783 15.3806 6.41096 15.1437C6.17409 14.9068 6.04102 14.5855 6.04102 14.2506C6.04102 13.9156 6.17409 13.5943 6.41096 13.3574C6.64783 13.1206 6.9691 12.9875 7.30409 12.9875C7.63908 12.9875 7.96034 13.1206 8.19721 13.3574C8.43409 13.5943 8.56716 13.9156 8.56716 14.2506Z" fill="#4895E8"/>
</svg>
