<svg width="23" height="28" viewBox="0 0 23 28" fill="none" xmlns="http://www.w3.org/2000/svg">
<path d="M4.7775 21.1982C2.46734 21.7186 0.988281 22.5169 0.988281 23.4137C0.988281 24.9799 5.51261 26.2505 11.0929 26.2505C16.6731 26.2505 21.1974 24.9799 21.1974 23.4137C21.1974 22.5169 19.7184 21.7186 17.4082 21.1982M14.2505 9.83059C14.2505 10.6681 13.9179 11.4712 13.3257 12.0634C12.7335 12.6556 11.9303 12.9883 11.0929 12.9883C10.2554 12.9883 9.45222 12.6556 8.86004 12.0634C8.26786 11.4712 7.93518 10.6681 7.93518 9.83059C7.93518 8.99312 8.26786 8.18996 8.86004 7.59778C9.45222 7.0056 10.2554 6.67291 11.0929 6.67291C11.9303 6.67291 12.7335 7.0056 13.3257 7.59778C13.9179 8.18996 14.2505 8.99312 14.2505 9.83059Z" stroke="#4895E8" stroke-width="1.97698" stroke-linecap="round" stroke-linejoin="round"/>
<path d="M12.6808 20.5585C12.2541 20.969 11.6851 21.1983 11.0931 21.1983C10.5011 21.1983 9.93204 20.969 9.50541 20.5585C5.60378 16.7781 0.375921 12.5557 2.9248 6.42473C4.30534 3.10916 7.61459 0.988464 11.0931 0.988464C14.5716 0.988464 17.8821 3.11043 19.2614 6.42473C21.8077 12.5468 16.5925 16.7908 12.6808 20.5585Z" stroke="#4895E8" stroke-width="1.97698" stroke-linecap="round" stroke-linejoin="round"/>
</svg>
