<svg width="32" height="32" viewBox="0 0 32 32" fill="none" xmlns="http://www.w3.org/2000/svg">
<g clip-path="url(#clip0_422_5729)">
<path d="M11.5009 16.7382C12.1743 17.0801 12.7805 17.4997 13.3192 17.9971C13.858 18.4944 14.3243 19.0539 14.718 19.6756C15.1117 20.2972 15.407 20.9603 15.6039 21.6649C15.8007 22.3695 15.9044 23.1051 15.9147 23.8718H13.9254C13.9254 23.0533 13.77 22.2814 13.4591 21.5561C13.1483 20.8308 12.7183 20.1988 12.1692 19.66C11.62 19.1212 10.988 18.6964 10.2731 18.3856C9.55815 18.0748 8.78625 17.9142 7.95736 17.9038C7.13883 17.9038 6.36692 18.0592 5.64164 18.3701C4.91636 18.6809 4.28433 19.1109 3.74555 19.66C3.20677 20.2092 2.78197 20.8412 2.47113 21.5561C2.1603 22.271 1.9997 23.0429 1.98934 23.8718H0C0 23.1155 0.103611 22.385 0.310834 21.6804C0.518057 20.9759 0.813349 20.3128 1.19671 19.6911C1.58007 19.0694 2.04114 18.5099 2.57992 18.0126C3.1187 17.5153 3.73001 17.0905 4.41385 16.7382C3.65748 16.1787 3.0669 15.4741 2.64209 14.6245C2.21728 13.7749 1.9997 12.8787 1.98934 11.9358C1.98934 11.1173 2.14476 10.3454 2.45559 9.62007C2.76642 8.8948 3.19641 8.26277 3.74555 7.72399C4.29469 7.18521 4.92672 6.7604 5.64164 6.44957C6.35656 6.13873 7.12846 5.97813 7.95736 5.96777C8.77589 5.96777 9.54779 6.12319 10.2731 6.43402C10.9984 6.74486 11.6304 7.17485 12.1692 7.72399C12.7079 8.27313 13.1327 8.90516 13.4436 9.62007C13.7544 10.335 13.915 11.1069 13.9254 11.9358C13.9254 12.8787 13.713 13.7749 13.2882 14.6245C12.8634 15.4741 12.2676 16.1787 11.5009 16.7382ZM3.97868 11.9358C3.97868 12.4849 4.08229 12.9978 4.28951 13.4744C4.49673 13.951 4.78167 14.3707 5.14431 14.7333C5.50695 15.0959 5.92657 15.3809 6.40318 15.5881C6.8798 15.7953 7.39785 15.9041 7.95736 15.9145C8.49613 15.9145 9.00901 15.8109 9.49599 15.6036C9.98296 15.3964 10.4026 15.1115 10.7549 14.7488C11.1071 14.3862 11.3921 13.9666 11.6097 13.49C11.8272 13.0133 11.936 12.4953 11.936 11.9358C11.936 11.397 11.8324 10.8841 11.6252 10.3972C11.418 9.91019 11.133 9.49056 10.7704 9.13828C10.4078 8.786 9.98296 8.50107 9.49599 8.28349C9.00901 8.0659 8.49613 7.95711 7.95736 7.95711C7.40822 7.95711 6.89534 8.06072 6.41873 8.26795C5.94211 8.47517 5.52249 8.7601 5.15985 9.12274C4.79721 9.48538 4.51228 9.91019 4.30505 10.3972C4.09783 10.8841 3.98904 11.397 3.97868 11.9358ZM31.8294 5.96777V7.95711H17.904V5.96777H31.8294ZM17.904 13.9251H31.8294V15.9145H17.904V13.9251ZM17.904 21.8825H31.8294V23.8718H17.904V21.8825Z" fill="#4895E8"/>
</g>
<defs>
<clipPath id="clip0_422_5729">
<rect width="31.8294" height="31.8294" fill="white"/>
</clipPath>
</defs>
</svg>
