<svg width="35" height="21" viewBox="0 0 35 21" fill="none" xmlns="http://www.w3.org/2000/svg">
<path d="M33.9521 0.630339V6.36414C33.7617 6.78329 33.2075 6.98985 32.8339 6.65074C32.7942 6.6146 32.633 6.35037 32.633 6.3323V4.04549H23.4645V8.42631H28.3787C28.421 8.42631 28.6836 8.60017 28.7329 8.66042C29.0193 9.01587 28.8572 9.55293 28.414 9.68375L8.0627 9.7156C7.50316 9.68806 7.23176 9.01501 7.60625 8.62255C7.64326 8.58382 7.91378 8.42631 7.93228 8.42631H12.8465V4.04549H8.39401L3.54763 8.71464L7.48113 16.0183L29.7613 16.0261L32.6004 14.1601C32.7255 13.9579 32.5827 12.3424 32.6321 11.9361C32.7246 11.1805 33.6498 11.1245 33.9529 11.7769V14.6757C33.8534 14.7497 33.841 14.8771 33.7512 14.9614C32.9687 15.6964 31.2865 16.5364 30.3314 17.2258C29.1506 18.0779 28.0862 19.1159 26.8481 19.8793H8.21073L7.84152 19.6598L5.52319 15.1912C4.84646 15.4046 3.73356 16.8411 3.01805 16.1887C2.79865 15.989 1.64873 14.3744 1.48748 14.0758C1.30596 13.7392 1.33151 13.5284 1.5659 13.2246L3.68157 11.8036L2.16245 8.92378C1.75623 8.52013 0.198342 7.28248 0.176313 6.78157C0.154284 6.28065 0.822203 5.89938 1.13942 5.59298C2.92906 3.8613 4.72662 2.13824 6.51185 0.403121L6.94715 0.183649L33.263 0.175903C33.6146 0.175903 33.7899 0.360948 33.9521 0.630339ZM32.633 1.46777H7.33838C6.19464 2.53501 5.03239 3.60482 3.90714 4.68755C3.20398 5.36404 2.47262 6.05344 1.83554 6.77382L2.7211 7.65085C4.47814 6.03967 6.11357 4.29939 7.9314 2.75534H32.633V1.46691V1.46777ZM22.0802 4.04463H14.2308V8.42545H22.0802V4.04463ZM4.33627 12.9354L2.95373 13.8692L3.65161 14.7996C3.73003 14.8185 4.84734 14.0611 4.86056 13.9906L4.33627 12.9354ZM28.0818 17.3162H8.09706C8.32264 17.6295 8.4742 18.2208 8.69713 18.5013C8.74207 18.5582 8.77027 18.6046 8.85486 18.6046L26.4499 18.5883L28.0818 17.3153V17.3162Z" fill="#4085CF" stroke="#4085CF" stroke-width="0.351831"/>
</svg>
