<svg width="38" height="38" viewBox="0 0 38 38" fill="none" xmlns="http://www.w3.org/2000/svg">
<rect x="1.5" y="1.5" width="35" height="35" rx="17.5" fill="white"/>
<rect x="1.5" y="1.5" width="35" height="35" rx="17.5" stroke="#FF5151" stroke-width="3"/>
<g clip-path="url(#clip0_422_5439)">
<path d="M19 9.25C17.0716 9.25 15.1866 9.82183 13.5832 10.8932C11.9798 11.9645 10.7301 13.4873 9.99218 15.2688C9.25422 17.0504 9.06114 19.0108 9.43735 20.9021C9.81355 22.7934 10.7422 24.5307 12.1057 25.8943C13.4693 27.2579 15.2066 28.1865 17.0979 28.5627C18.9892 28.9389 20.9496 28.7458 22.7312 28.0078C24.5127 27.2699 26.0355 26.0202 27.1068 24.4168C28.1782 22.8134 28.75 20.9284 28.75 19C28.7473 16.415 27.7192 13.9366 25.8913 12.1087C24.0634 10.2808 21.585 9.25273 19 9.25ZM19 27.25C17.3683 27.25 15.7733 26.7661 14.4165 25.8596C13.0598 24.9531 12.0024 23.6646 11.378 22.1571C10.7536 20.6496 10.5902 18.9908 10.9085 17.3905C11.2269 15.7902 12.0126 14.3202 13.1664 13.1664C14.3202 12.0126 15.7902 11.2268 17.3905 10.9085C18.9909 10.5902 20.6497 10.7536 22.1571 11.378C23.6646 12.0024 24.9531 13.0598 25.8596 14.4165C26.7661 15.7733 27.25 17.3683 27.25 19C27.2475 21.1873 26.3775 23.2843 24.8309 24.8309C23.2843 26.3775 21.1873 27.2475 19 27.25ZM20.5 23.5C20.5 23.6989 20.421 23.8897 20.2803 24.0303C20.1397 24.171 19.9489 24.25 19.75 24.25C19.3522 24.25 18.9706 24.092 18.6893 23.8107C18.408 23.5294 18.25 23.1478 18.25 22.75V19C18.0511 19 17.8603 18.921 17.7197 18.7803C17.579 18.6397 17.5 18.4489 17.5 18.25C17.5 18.0511 17.579 17.8603 17.7197 17.7197C17.8603 17.579 18.0511 17.5 18.25 17.5C18.6478 17.5 19.0294 17.658 19.3107 17.9393C19.592 18.2206 19.75 18.6022 19.75 19V22.75C19.9489 22.75 20.1397 22.829 20.2803 22.9697C20.421 23.1103 20.5 23.3011 20.5 23.5ZM17.5 14.875C17.5 14.6525 17.566 14.435 17.6896 14.25C17.8132 14.065 17.9889 13.9208 18.1945 13.8356C18.4001 13.7505 18.6263 13.7282 18.8445 13.7716C19.0627 13.815 19.2632 13.9222 19.4205 14.0795C19.5778 14.2368 19.685 14.4373 19.7284 14.6555C19.7718 14.8738 19.7495 15.1 19.6644 15.3055C19.5792 15.5111 19.435 15.6868 19.25 15.8104C19.065 15.934 18.8475 16 18.625 16C18.3266 16 18.0405 15.8815 17.8295 15.6705C17.6185 15.4595 17.5 15.1734 17.5 14.875Z" fill="#4895E8"/>
</g>
<defs>
<clipPath id="clip0_422_5439">
<rect width="20" height="20" fill="white" transform="translate(9 9)"/>
</clipPath>
</defs>
</svg>
