<svg width="32" height="32" viewBox="0 0 32 32" fill="none" xmlns="http://www.w3.org/2000/svg">
<rect width="32" height="32" rx="16" fill="#F8F8F8"/>
<g clip-path="url(#clip0_422_5452)">
<path d="M16 6.25C14.0716 6.25 12.1866 6.82183 10.5832 7.89317C8.97982 8.96451 7.73013 10.4873 6.99218 12.2688C6.25422 14.0504 6.06114 16.0108 6.43735 17.9021C6.81355 19.7934 7.74215 21.5307 9.10571 22.8943C10.4693 24.2579 12.2066 25.1865 14.0979 25.5627C15.9892 25.9389 17.9496 25.7458 19.7312 25.0078C21.5127 24.2699 23.0355 23.0202 24.1068 21.4168C25.1782 19.8134 25.75 17.9284 25.75 16C25.7473 13.415 24.7192 10.9366 22.8913 9.10872C21.0634 7.28084 18.585 6.25273 16 6.25ZM16 24.25C14.3683 24.25 12.7733 23.7661 11.4165 22.8596C10.0598 21.9531 9.00242 20.6646 8.378 19.1571C7.75358 17.6496 7.5902 15.9908 7.90853 14.3905C8.22685 12.7902 9.01259 11.3202 10.1664 10.1664C11.3202 9.01259 12.7902 8.22685 14.3905 7.90852C15.9909 7.59019 17.6497 7.75357 19.1571 8.37799C20.6646 9.00242 21.9531 10.0598 22.8596 11.4165C23.7661 12.7733 24.25 14.3683 24.25 16C24.2475 18.1873 23.3775 20.2843 21.8309 21.8309C20.2843 23.3775 18.1873 24.2475 16 24.25ZM17.5 20.5C17.5 20.6989 17.421 20.8897 17.2803 21.0303C17.1397 21.171 16.9489 21.25 16.75 21.25C16.3522 21.25 15.9706 21.092 15.6893 20.8107C15.408 20.5294 15.25 20.1478 15.25 19.75V16C15.0511 16 14.8603 15.921 14.7197 15.7803C14.579 15.6397 14.5 15.4489 14.5 15.25C14.5 15.0511 14.579 14.8603 14.7197 14.7197C14.8603 14.579 15.0511 14.5 15.25 14.5C15.6478 14.5 16.0294 14.658 16.3107 14.9393C16.592 15.2206 16.75 15.6022 16.75 16V19.75C16.9489 19.75 17.1397 19.829 17.2803 19.9697C17.421 20.1103 17.5 20.3011 17.5 20.5ZM14.5 11.875C14.5 11.6525 14.566 11.435 14.6896 11.25C14.8132 11.065 14.9889 10.9208 15.1945 10.8356C15.4001 10.7505 15.6263 10.7282 15.8445 10.7716C16.0627 10.815 16.2632 10.9222 16.4205 11.0795C16.5778 11.2368 16.685 11.4373 16.7284 11.6555C16.7718 11.8738 16.7495 12.1 16.6644 12.3055C16.5792 12.5111 16.435 12.6868 16.25 12.8104C16.065 12.934 15.8475 13 15.625 13C15.3266 13 15.0405 12.8815 14.8295 12.6705C14.6185 12.4595 14.5 12.1734 14.5 11.875Z" fill="#4895E8"/>
</g>
<defs>
<clipPath id="clip0_422_5452">
<rect width="20" height="20" fill="white" transform="translate(6 6)"/>
</clipPath>
</defs>
</svg>
