<svg width="40" height="40" viewBox="0 0 40 40" fill="none" xmlns="http://www.w3.org/2000/svg">
<g clip-path="url(#clip0_4_3253)">
<path d="M39.9094 18.2812L37.7219 12.8125C37.5363 12.3498 37.2161 11.9535 36.8026 11.6749C36.3892 11.3963 35.9017 11.2483 35.4031 11.25H30V10C30 9.66848 29.8683 9.35054 29.6339 9.11612C29.3995 8.8817 29.0815 8.75 28.75 8.75H5C4.33696 8.75 3.70107 9.01339 3.23223 9.48223C2.76339 9.95107 2.5 10.587 2.5 11.25V28.75C2.5 29.413 2.76339 30.0489 3.23223 30.5178C3.70107 30.9866 4.33696 31.25 5 31.25H7.65625C7.93163 32.3255 8.55713 33.2788 9.43414 33.9595C10.3111 34.6403 11.3898 35.0098 12.5 35.0098C13.6102 35.0098 14.6889 34.6403 15.5659 33.9595C16.4429 33.2788 17.0684 32.3255 17.3438 31.25H25.1562C25.4316 32.3255 26.0571 33.2788 26.9341 33.9595C27.8111 34.6403 28.8898 35.0098 30 35.0098C31.1102 35.0098 32.1889 34.6403 33.0659 33.9595C33.9429 33.2788 34.5684 32.3255 34.8438 31.25H37.5C38.163 31.25 38.7989 30.9866 39.2678 30.5178C39.7366 30.0489 40 29.413 40 28.75V18.75C40.0004 18.5894 39.9696 18.4302 39.9094 18.2812ZM30 13.75H35.4031L36.9031 17.5H30V13.75ZM5 11.25H27.5V21.25H5V11.25ZM12.5 32.5C12.0055 32.5 11.5222 32.3534 11.1111 32.0787C10.7 31.804 10.3795 31.4135 10.1903 30.9567C10.0011 30.4999 9.95157 29.9972 10.048 29.5123C10.1445 29.0273 10.3826 28.5819 10.7322 28.2322C11.0819 27.8826 11.5273 27.6445 12.0123 27.548C12.4972 27.4516 12.9999 27.5011 13.4567 27.6903C13.9135 27.8795 14.304 28.2 14.5787 28.6111C14.8534 29.0222 15 29.5055 15 30C15 30.663 14.7366 31.2989 14.2678 31.7678C13.7989 32.2366 13.163 32.5 12.5 32.5ZM25.1562 28.75H17.3438C17.0684 27.6745 16.4429 26.7212 15.5659 26.0405C14.6889 25.3597 13.6102 24.9902 12.5 24.9902C11.3898 24.9902 10.3111 25.3597 9.43414 26.0405C8.55713 26.7212 7.93163 27.6745 7.65625 28.75H5V23.75H27.5V25.6734C26.9252 26.0057 26.4221 26.4487 26.0198 26.9768C25.6174 27.5049 25.3239 28.1076 25.1562 28.75ZM30 32.5C29.5055 32.5 29.0222 32.3534 28.6111 32.0787C28.2 31.804 27.8795 31.4135 27.6903 30.9567C27.5011 30.4999 27.4516 29.9972 27.548 29.5123C27.6445 29.0273 27.8826 28.5819 28.2322 28.2322C28.5819 27.8826 29.0273 27.6445 29.5123 27.548C29.9972 27.4516 30.4999 27.5011 30.9567 27.6903C31.4135 27.8795 31.804 28.2 32.0787 28.6111C32.3534 29.0222 32.5 29.5055 32.5 30C32.5 30.663 32.2366 31.2989 31.7678 31.7678C31.2989 32.2366 30.663 32.5 30 32.5ZM37.5 28.75H34.8438C34.5651 27.6771 33.9384 26.7269 33.0619 26.0483C32.1854 25.3697 31.1085 25.001 30 25V20H37.5V28.75Z" fill="#05376D"/>
</g>
<defs>
<clipPath id="clip0_4_3253">
<rect width="40" height="40" fill="white"/>
</clipPath>
</defs>
</svg>
