<svg width="20" height="20" viewBox="0 0 20 20" fill="none" xmlns="http://www.w3.org/2000/svg">
<path d="M19 11.5003V17.5003C19 17.6993 18.921 17.89 18.7803 18.0307C18.6397 18.1713 18.4489 18.2503 18.25 18.2503H1.75C1.55109 18.2503 1.36032 18.1713 1.21967 18.0307C1.07902 17.89 1 17.6993 1 17.5003V11.5003C1 11.3014 1.07902 11.1107 1.21967 10.97C1.36032 10.8294 1.55109 10.7503 1.75 10.7503C1.94891 10.7503 2.13968 10.8294 2.28033 10.97C2.42098 11.1107 2.5 11.3014 2.5 11.5003V16.7503H17.5V11.5003C17.5 11.3014 17.579 11.1107 17.7197 10.97C17.8603 10.8294 18.0511 10.7503 18.25 10.7503C18.4489 10.7503 18.6397 10.8294 18.7803 10.97C18.921 11.1107 19 11.3014 19 11.5003ZM6.78063 5.28097L9.25 2.81066V11.5003C9.25 11.6993 9.32902 11.89 9.46967 12.0307C9.61032 12.1713 9.80109 12.2503 10 12.2503C10.1989 12.2503 10.3897 12.1713 10.5303 12.0307C10.671 11.89 10.75 11.6993 10.75 11.5003V2.81066L13.2194 5.28097C13.3601 5.4217 13.551 5.50076 13.75 5.50076C13.949 5.50076 14.1399 5.4217 14.2806 5.28097C14.4214 5.14024 14.5004 4.94937 14.5004 4.75035C14.5004 4.55132 14.4214 4.36045 14.2806 4.21972L10.5306 0.469721C10.461 0.399988 10.3783 0.344669 10.2872 0.306926C10.1962 0.269183 10.0986 0.249756 10 0.249756C9.90144 0.249756 9.80384 0.269183 9.7128 0.306926C9.62175 0.344669 9.53903 0.399988 9.46937 0.469721L5.71937 4.21972C5.57864 4.36045 5.49958 4.55132 5.49958 4.75035C5.49958 4.94937 5.57864 5.14024 5.71937 5.28097C5.86011 5.4217 6.05098 5.50076 6.25 5.50076C6.44902 5.50076 6.63989 5.4217 6.78063 5.28097Z" fill="#4895E8"/>
</svg>
