<svg width="40" height="24" viewBox="0 0 40 24" fill="none" xmlns="http://www.w3.org/2000/svg">
<path d="M39.2187 13.5172C39.6491 13.5172 39.9999 13.868 39.9999 14.2984L40 7.26719C40 7.69851 39.65 8.04844 39.2188 8.04844C38.7883 8.04844 38.4375 7.69851 38.4375 7.26719L38.4374 14.2984C38.4374 13.868 38.7882 13.5172 39.2187 13.5172Z" fill="#05376D"/>
<path fill-rule="evenodd" clip-rule="evenodd" d="M8.12501 0H39.2188C39.6502 0 40 0.349844 40 0.78125V7.26719C40 7.69851 39.65 8.04844 39.2188 8.04844C38.7883 8.04844 38.4375 7.69851 38.4375 7.26719V4.6875H27.5391H25.9766H16.6016H15.0391H9.71821L3.9579 10.3252L8.59844 19.2187H35.0719L38.4374 16.9297V14.2984C38.4374 13.868 38.7882 13.5172 39.2187 13.5172C39.6491 13.5172 39.9999 13.868 39.9999 14.2984V17.3437C39.9999 17.6023 39.8718 17.8446 39.6577 17.9898L35.7782 20.628L31.8943 23.7351C31.7558 23.8459 31.5837 23.9062 31.4063 23.9062H9.68751C9.39165 23.9062 9.1211 23.7391 8.98868 23.4744L7.43407 20.3651L7.43204 20.3617L6.28962 18.1719L4.37493 19.5079C4.23884 19.6029 4.0829 19.6485 3.9286 19.6485C3.68266 19.6485 3.44071 19.5328 3.28868 19.3163L1.54829 16.8396C1.42892 16.6698 1.38212 16.4593 1.41813 16.2548C1.45415 16.0504 1.57017 15.8686 1.74048 15.7498L4.14915 14.0691L2.36118 10.6419L0.22954 8.51609C0.0816499 8.36851 -0.00100637 8.16797 9.25001e-06 7.95906C0.00102487 7.75015 0.0856342 7.55031 0.235009 7.40429L7.57876 0.222734C7.72477 0.0799217 7.92087 0 8.12501 0ZM3.27743 16.5827L4.11946 17.7809L5.56095 16.7752L4.8779 15.4659L3.27743 16.5827ZM31.1322 22.3437L33.0853 20.7812H9.38907L10.1703 22.3437H31.1322ZM8.85321 3.34766C9.00009 3.20391 9.19407 3.125 9.39954 3.125H38.4375V1.5625H8.44352L1.89313 7.96828L3.00188 9.07398L8.85321 3.34766Z" fill="#05376D"/>
<path d="M15.0391 4.6875V10H9.37501C8.94352 10 8.59376 10.3498 8.59376 10.7812C8.59376 11.2127 8.94352 11.5625 9.37501 11.5625H33.2031C33.6346 11.5625 33.9844 11.2127 33.9844 10.7812C33.9844 10.3498 33.6346 10 33.2031 10H27.5391V4.6875H25.9766V10H16.6016V4.6875H15.0391Z" fill="#05376D"/>
</svg>
