<svg width="37" height="33" viewBox="0 0 37 33" fill="none" xmlns="http://www.w3.org/2000/svg">
<mask id="path-1-outside-1_422_7566" maskUnits="userSpaceOnUse" x="-0.900391" y="-0.899902" width="38" height="34" fill="black">
<rect fill="white" x="-0.900391" y="-0.899902" width="38" height="34"/>
<path d="M28.9248 7.06222C28.77 6.86883 28.4993 6.79148 28.2285 6.90751L27.2229 7.2943L24.1286 0.448204C24.0126 0.216133 23.8192 0.100098 23.5871 0.100098H13.5307C13.3373 0.100098 13.1826 0.177455 13.0666 0.332169L7.38083 7.13958C7.2648 7.25562 7.22612 7.44901 7.2648 7.60372C7.30348 7.75844 7.38083 7.91315 7.49687 8.02919L13.1826 12.2451C13.4534 12.4385 13.8401 12.3999 14.0335 12.1291L17.7467 7.1009L19.5259 10.2725L18.4042 10.8527C18.1721 10.9688 18.0561 11.2008 18.0948 11.4329C18.1335 11.665 18.2882 11.897 18.5589 11.9357L24.9022 13.4829C24.9409 13.4829 24.9795 13.4829 25.0569 13.4829C25.2503 13.4829 25.4437 13.3668 25.5597 13.2121L28.9634 7.75844C29.1181 7.52637 29.0795 7.25562 28.9248 7.06222ZM13.4147 10.8914L8.73458 7.41033L13.8401 1.29913H14.6524L17.1665 5.97923L13.4147 10.8914ZM24.7088 12.2451L20.4155 11.2008L20.6476 11.0848C20.8023 11.0074 20.9183 10.8914 20.957 10.7367C20.9957 10.582 20.9957 10.4273 20.9183 10.2725L18.3655 5.70848L15.9675 1.26045H23.1617L26.3333 8.29994C26.4493 8.53201 26.7201 8.68672 26.9522 8.64804L24.7088 12.2451Z"/>
<path d="M15.542 22.6883L9.27608 22.4176L10.9006 19.1686L11.9836 19.7874C12.2156 19.9035 12.4864 19.9035 12.6798 19.7101C12.8732 19.5554 12.9505 19.2846 12.8345 19.0526L10.5525 12.9414C10.4751 12.7093 10.243 12.5546 9.97229 12.5546L3.51299 12.7866C3.24224 12.7866 3.04884 12.98 2.97149 13.2121C2.89413 13.4442 3.01017 13.7149 3.20356 13.8696L4.09316 14.4885L0.186636 20.9091C0.0706005 21.1025 0.0706005 21.3733 0.186636 21.5667L4.51863 27.9486L6.1818 30.4627C6.29784 30.6174 6.49123 30.7335 6.68462 30.7335H15.5033C15.8514 30.7335 16.1222 30.4627 16.1222 30.1146V23.3072C16.1222 22.9978 15.8514 22.727 15.542 22.6883ZM5.44691 27.175L1.42435 21.2186L5.48559 14.6432C5.6403 14.4111 5.60162 14.1404 5.40823 13.947L9.62419 13.7536L11.1713 17.9309L10.9393 17.8148C10.7845 17.7375 10.6298 17.6988 10.4751 17.7762C10.3204 17.8148 10.2044 17.9309 10.127 18.0856L7.8063 22.727L5.44691 27.175ZM14.8845 29.5344H6.99405L6.22048 28.3354L8.6959 23.6166L14.8845 23.8874V29.5344Z"/>
<path d="M36.0416 20.6771L32.1737 12.7093C32.0964 12.5546 31.9804 12.4385 31.8256 12.3999C31.6709 12.3612 31.5162 12.3612 31.3615 12.4772L25.1729 15.9196C24.9022 16.0743 24.7862 16.4611 24.9409 16.7318L27.9578 22.1855L24.322 22.4949L24.2833 21.2572C24.2833 20.9865 24.0899 20.7931 23.8579 20.7157C23.6258 20.6384 23.355 20.7157 23.2003 20.9091L19.1778 26.0534C19.0231 26.2468 19.0231 26.5562 19.1391 26.7496L22.7362 32.0872C22.8522 32.2419 23.0456 32.358 23.239 32.358C23.2777 32.358 23.355 32.358 23.3937 32.3193C23.6258 32.2419 23.8192 32.0098 23.8192 31.7778L23.8579 30.6948H31.3615C31.5936 30.6948 31.8256 30.5401 31.903 30.3467L36.0416 21.1799C36.119 21.0252 36.119 20.8318 36.0416 20.6771ZM31.0521 29.5344H23.355C23.0843 29.5344 22.8522 29.7278 22.7749 29.9599L20.4155 26.4401L23.1617 22.9204V23.1912C23.1617 23.3459 23.239 23.5006 23.355 23.6166C23.4711 23.7327 23.6258 23.7713 23.8192 23.7713L29.0021 23.3072L34.0303 22.9591L31.0521 29.5344ZM34.5331 21.6827L29.2342 22.0695L26.2559 16.6545L31.3615 13.7923L34.8812 20.9478L34.5331 21.6827Z"/>
</mask>
<path d="M28.9248 7.06222C28.77 6.86883 28.4993 6.79148 28.2285 6.90751L27.2229 7.2943L24.1286 0.448204C24.0126 0.216133 23.8192 0.100098 23.5871 0.100098H13.5307C13.3373 0.100098 13.1826 0.177455 13.0666 0.332169L7.38083 7.13958C7.2648 7.25562 7.22612 7.44901 7.2648 7.60372C7.30348 7.75844 7.38083 7.91315 7.49687 8.02919L13.1826 12.2451C13.4534 12.4385 13.8401 12.3999 14.0335 12.1291L17.7467 7.1009L19.5259 10.2725L18.4042 10.8527C18.1721 10.9688 18.0561 11.2008 18.0948 11.4329C18.1335 11.665 18.2882 11.897 18.5589 11.9357L24.9022 13.4829C24.9409 13.4829 24.9795 13.4829 25.0569 13.4829C25.2503 13.4829 25.4437 13.3668 25.5597 13.2121L28.9634 7.75844C29.1181 7.52637 29.0795 7.25562 28.9248 7.06222ZM13.4147 10.8914L8.73458 7.41033L13.8401 1.29913H14.6524L17.1665 5.97923L13.4147 10.8914ZM24.7088 12.2451L20.4155 11.2008L20.6476 11.0848C20.8023 11.0074 20.9183 10.8914 20.957 10.7367C20.9957 10.582 20.9957 10.4273 20.9183 10.2725L18.3655 5.70848L15.9675 1.26045H23.1617L26.3333 8.29994C26.4493 8.53201 26.7201 8.68672 26.9522 8.64804L24.7088 12.2451Z" fill="#05376D"/>
<path d="M15.542 22.6883L9.27608 22.4176L10.9006 19.1686L11.9836 19.7874C12.2156 19.9035 12.4864 19.9035 12.6798 19.7101C12.8732 19.5554 12.9505 19.2846 12.8345 19.0526L10.5525 12.9414C10.4751 12.7093 10.243 12.5546 9.97229 12.5546L3.51299 12.7866C3.24224 12.7866 3.04884 12.98 2.97149 13.2121C2.89413 13.4442 3.01017 13.7149 3.20356 13.8696L4.09316 14.4885L0.186636 20.9091C0.0706005 21.1025 0.0706005 21.3733 0.186636 21.5667L4.51863 27.9486L6.1818 30.4627C6.29784 30.6174 6.49123 30.7335 6.68462 30.7335H15.5033C15.8514 30.7335 16.1222 30.4627 16.1222 30.1146V23.3072C16.1222 22.9978 15.8514 22.727 15.542 22.6883ZM5.44691 27.175L1.42435 21.2186L5.48559 14.6432C5.6403 14.4111 5.60162 14.1404 5.40823 13.947L9.62419 13.7536L11.1713 17.9309L10.9393 17.8148C10.7845 17.7375 10.6298 17.6988 10.4751 17.7762C10.3204 17.8148 10.2044 17.9309 10.127 18.0856L7.8063 22.727L5.44691 27.175ZM14.8845 29.5344H6.99405L6.22048 28.3354L8.6959 23.6166L14.8845 23.8874V29.5344Z" fill="#05376D"/>
<path d="M36.0416 20.6771L32.1737 12.7093C32.0964 12.5546 31.9804 12.4385 31.8256 12.3999C31.6709 12.3612 31.5162 12.3612 31.3615 12.4772L25.1729 15.9196C24.9022 16.0743 24.7862 16.4611 24.9409 16.7318L27.9578 22.1855L24.322 22.4949L24.2833 21.2572C24.2833 20.9865 24.0899 20.7931 23.8579 20.7157C23.6258 20.6384 23.355 20.7157 23.2003 20.9091L19.1778 26.0534C19.0231 26.2468 19.0231 26.5562 19.1391 26.7496L22.7362 32.0872C22.8522 32.2419 23.0456 32.358 23.239 32.358C23.2777 32.358 23.355 32.358 23.3937 32.3193C23.6258 32.2419 23.8192 32.0098 23.8192 31.7778L23.8579 30.6948H31.3615C31.5936 30.6948 31.8256 30.5401 31.903 30.3467L36.0416 21.1799C36.119 21.0252 36.119 20.8318 36.0416 20.6771ZM31.0521 29.5344H23.355C23.0843 29.5344 22.8522 29.7278 22.7749 29.9599L20.4155 26.4401L23.1617 22.9204V23.1912C23.1617 23.3459 23.239 23.5006 23.355 23.6166C23.4711 23.7327 23.6258 23.7713 23.8192 23.7713L29.0021 23.3072L34.0303 22.9591L31.0521 29.5344ZM34.5331 21.6827L29.2342 22.0695L26.2559 16.6545L31.3615 13.7923L34.8812 20.9478L34.5331 21.6827Z" fill="#05376D"/>
<path d="M28.9248 7.06222C28.77 6.86883 28.4993 6.79148 28.2285 6.90751L27.2229 7.2943L24.1286 0.448204C24.0126 0.216133 23.8192 0.100098 23.5871 0.100098H13.5307C13.3373 0.100098 13.1826 0.177455 13.0666 0.332169L7.38083 7.13958C7.2648 7.25562 7.22612 7.44901 7.2648 7.60372C7.30348 7.75844 7.38083 7.91315 7.49687 8.02919L13.1826 12.2451C13.4534 12.4385 13.8401 12.3999 14.0335 12.1291L17.7467 7.1009L19.5259 10.2725L18.4042 10.8527C18.1721 10.9688 18.0561 11.2008 18.0948 11.4329C18.1335 11.665 18.2882 11.897 18.5589 11.9357L24.9022 13.4829C24.9409 13.4829 24.9795 13.4829 25.0569 13.4829C25.2503 13.4829 25.4437 13.3668 25.5597 13.2121L28.9634 7.75844C29.1181 7.52637 29.0795 7.25562 28.9248 7.06222ZM13.4147 10.8914L8.73458 7.41033L13.8401 1.29913H14.6524L17.1665 5.97923L13.4147 10.8914ZM24.7088 12.2451L20.4155 11.2008L20.6476 11.0848C20.8023 11.0074 20.9183 10.8914 20.957 10.7367C20.9957 10.582 20.9957 10.4273 20.9183 10.2725L18.3655 5.70848L15.9675 1.26045H23.1617L26.3333 8.29994C26.4493 8.53201 26.7201 8.68672 26.9522 8.64804L24.7088 12.2451Z" stroke="#05376D" stroke-width="0.2" mask="url(#path-1-outside-1_422_7566)"/>
<path d="M15.542 22.6883L9.27608 22.4176L10.9006 19.1686L11.9836 19.7874C12.2156 19.9035 12.4864 19.9035 12.6798 19.7101C12.8732 19.5554 12.9505 19.2846 12.8345 19.0526L10.5525 12.9414C10.4751 12.7093 10.243 12.5546 9.97229 12.5546L3.51299 12.7866C3.24224 12.7866 3.04884 12.98 2.97149 13.2121C2.89413 13.4442 3.01017 13.7149 3.20356 13.8696L4.09316 14.4885L0.186636 20.9091C0.0706005 21.1025 0.0706005 21.3733 0.186636 21.5667L4.51863 27.9486L6.1818 30.4627C6.29784 30.6174 6.49123 30.7335 6.68462 30.7335H15.5033C15.8514 30.7335 16.1222 30.4627 16.1222 30.1146V23.3072C16.1222 22.9978 15.8514 22.727 15.542 22.6883ZM5.44691 27.175L1.42435 21.2186L5.48559 14.6432C5.6403 14.4111 5.60162 14.1404 5.40823 13.947L9.62419 13.7536L11.1713 17.9309L10.9393 17.8148C10.7845 17.7375 10.6298 17.6988 10.4751 17.7762C10.3204 17.8148 10.2044 17.9309 10.127 18.0856L7.8063 22.727L5.44691 27.175ZM14.8845 29.5344H6.99405L6.22048 28.3354L8.6959 23.6166L14.8845 23.8874V29.5344Z" stroke="#05376D" stroke-width="0.2" mask="url(#path-1-outside-1_422_7566)"/>
<path d="M36.0416 20.6771L32.1737 12.7093C32.0964 12.5546 31.9804 12.4385 31.8256 12.3999C31.6709 12.3612 31.5162 12.3612 31.3615 12.4772L25.1729 15.9196C24.9022 16.0743 24.7862 16.4611 24.9409 16.7318L27.9578 22.1855L24.322 22.4949L24.2833 21.2572C24.2833 20.9865 24.0899 20.7931 23.8579 20.7157C23.6258 20.6384 23.355 20.7157 23.2003 20.9091L19.1778 26.0534C19.0231 26.2468 19.0231 26.5562 19.1391 26.7496L22.7362 32.0872C22.8522 32.2419 23.0456 32.358 23.239 32.358C23.2777 32.358 23.355 32.358 23.3937 32.3193C23.6258 32.2419 23.8192 32.0098 23.8192 31.7778L23.8579 30.6948H31.3615C31.5936 30.6948 31.8256 30.5401 31.903 30.3467L36.0416 21.1799C36.119 21.0252 36.119 20.8318 36.0416 20.6771ZM31.0521 29.5344H23.355C23.0843 29.5344 22.8522 29.7278 22.7749 29.9599L20.4155 26.4401L23.1617 22.9204V23.1912C23.1617 23.3459 23.239 23.5006 23.355 23.6166C23.4711 23.7327 23.6258 23.7713 23.8192 23.7713L29.0021 23.3072L34.0303 22.9591L31.0521 29.5344ZM34.5331 21.6827L29.2342 22.0695L26.2559 16.6545L31.3615 13.7923L34.8812 20.9478L34.5331 21.6827Z" stroke="#05376D" stroke-width="0.2" mask="url(#path-1-outside-1_422_7566)"/>
</svg>
