<svg width="40" height="40" viewBox="0 0 40 40" fill="none" xmlns="http://www.w3.org/2000/svg">
<path d="M14.9977 32.496C14.9977 32.8276 14.866 33.1455 14.6316 33.3799C14.3972 33.6144 14.0792 33.746 13.7477 33.746H6.24772C5.58965 33.7456 4.94327 33.5721 4.37352 33.2428C3.80376 32.9135 3.3307 32.4401 3.00183 31.8701C2.67297 31.3001 2.4999 30.6535 2.5 29.9955C2.5001 29.3374 2.67337 28.691 3.00241 28.121L8.36022 18.8632L6.16491 19.4492C6.00588 19.4916 5.84005 19.5024 5.67688 19.4808C5.51371 19.4592 5.35639 19.4056 5.21391 19.3232C4.92616 19.1568 4.71631 18.8828 4.63053 18.5617C4.54475 18.2405 4.59006 17.8984 4.7565 17.6107C4.92294 17.3229 5.19687 17.1131 5.51803 17.0273L10.6383 15.657C10.797 15.6145 10.9624 15.6036 11.1252 15.625C11.288 15.6465 11.445 15.6998 11.5872 15.7819C11.7294 15.864 11.854 15.9734 11.954 16.1037C12.0539 16.234 12.1272 16.3827 12.1696 16.5414L13.543 21.6617C13.5864 21.821 13.5978 21.9874 13.5765 22.1511C13.5552 22.3149 13.5017 22.4728 13.419 22.6158C13.3364 22.7587 13.2262 22.8839 13.0949 22.984C12.9636 23.0842 12.8137 23.1573 12.654 23.1992C12.5478 23.2268 12.4386 23.241 12.329 23.2414C12.054 23.2411 11.7868 23.1502 11.5687 22.9827C11.3506 22.8152 11.1939 22.5804 11.1227 22.3148L10.529 20.1039L5.17115 29.371C5.06169 29.5606 5.00394 29.7756 5.00368 29.9946C5.00342 30.2135 5.06065 30.4286 5.16966 30.6185C5.27866 30.8083 5.43561 30.9662 5.62481 31.0763C5.814 31.1865 6.0288 31.245 6.24772 31.246H13.7477C14.0792 31.246 14.3972 31.3777 14.6316 31.6122C14.866 31.8466 14.9977 32.1645 14.9977 32.496ZM36.9868 28.121L33.3712 21.871C33.1982 21.599 32.9268 21.4042 32.6136 21.3275C32.3005 21.2508 31.9698 21.2981 31.6907 21.4594C31.4116 21.6208 31.2056 21.8837 31.1158 22.1934C31.0259 22.503 31.0592 22.8354 31.2087 23.121L34.8243 29.371C34.9337 29.5606 34.9915 29.7756 34.9918 29.9946C34.992 30.2135 34.9348 30.4286 34.8258 30.6185C34.7168 30.8083 34.5598 30.9662 34.3706 31.0763C34.1814 31.1865 33.9666 31.245 33.7477 31.246H23.0149L24.6305 29.6304C24.8651 29.3961 24.9969 29.0782 24.9971 28.7466C24.9972 28.415 24.8657 28.097 24.6313 27.8625C24.397 27.6279 24.079 27.4961 23.7475 27.4959C23.4159 27.4958 23.0979 27.6273 22.8633 27.8617L19.1133 31.6117C18.9971 31.7278 18.9049 31.8656 18.842 32.0174C18.7791 32.1691 18.7467 32.3318 18.7467 32.496C18.7467 32.6603 18.7791 32.823 18.842 32.9747C18.9049 33.1265 18.9971 33.2643 19.1133 33.3804L22.8633 37.1304C22.9795 37.2465 23.1173 37.3385 23.269 37.4012C23.4207 37.464 23.5833 37.4963 23.7475 37.4962C23.9117 37.4961 24.0742 37.4637 24.2259 37.4008C24.3775 37.3379 24.5153 37.2458 24.6313 37.1296C24.7473 37.0135 24.8394 36.8756 24.9021 36.7239C24.9649 36.5722 24.9972 36.4097 24.9971 36.2455C24.997 36.0813 24.9646 35.9188 24.9017 35.7671C24.8388 35.6155 24.7467 35.4777 24.6305 35.3617L23.0149 33.746H33.7477C34.4058 33.7456 35.0522 33.5721 35.6219 33.2428C36.1917 32.9135 36.6647 32.4401 36.9936 31.8701C37.3225 31.3001 37.4955 30.6535 37.4954 29.9955C37.4953 29.3374 37.3221 28.691 36.993 28.121H36.9868ZM19.9977 4.99605C20.2174 4.99385 20.4336 5.05069 20.6238 5.16063C20.814 5.27058 20.9712 5.42959 21.079 5.62105L26.4368 14.8789L24.2368 14.2882C23.9205 14.214 23.5877 14.2658 23.309 14.4327C23.0302 14.5996 22.8274 14.8685 22.7435 15.1824C22.6596 15.4962 22.7012 15.8304 22.8595 16.1141C23.0178 16.3979 23.2803 16.6088 23.5915 16.7023L28.7133 18.0757C28.8189 18.1035 28.9276 18.1176 29.0368 18.1179C29.3118 18.1177 29.579 18.0267 29.7971 17.8592C30.0151 17.6917 30.1719 17.457 30.243 17.1914L31.6165 12.0679C31.6636 11.908 31.6783 11.7402 31.6596 11.5745C31.6409 11.4088 31.5893 11.2485 31.5077 11.103C31.4261 10.9576 31.3162 10.8299 31.1846 10.7276C31.0529 10.6252 30.9021 10.5503 30.741 10.5071C30.5799 10.4639 30.4118 10.4534 30.2466 10.4762C30.0814 10.499 29.9225 10.5546 29.7791 10.6398C29.6357 10.725 29.5108 10.838 29.4118 10.9721C29.3127 11.1063 29.2416 11.2589 29.2024 11.4211L28.6087 13.6351L23.243 4.37105C22.9136 3.80205 22.4403 3.32966 21.8707 3.00127C21.3011 2.67287 20.6552 2.5 19.9977 2.5C19.3402 2.5 18.6943 2.67287 18.1247 3.00127C17.5551 3.32966 17.0818 3.80205 16.7524 4.37105L13.1337 10.6211C12.9782 10.9074 12.9406 11.2431 13.029 11.5567C13.1174 11.8703 13.3248 12.137 13.6069 12.3C13.8891 12.4629 14.2237 12.5093 14.5395 12.4292C14.8553 12.3491 15.1274 12.1488 15.2977 11.8711L18.9165 5.62105C19.0242 5.42959 19.1814 5.27058 19.3716 5.16063C19.5618 5.05069 19.778 4.99385 19.9977 4.99605Z" fill="#05376D"/>
</svg>
